<svg id="Layer_1" data-name="Layer 1" xmlns="http://www.w3.org/2000/svg" xmlns:xlink="http://www.w3.org/1999/xlink" viewBox="0 0 201.06 82.13"><defs><style>.cls-1{fill:#565655;}.cls-2{mask:url(#mask);}.cls-3{fill:url(#linear-gradient);}.cls-4{filter:url(#luminosity-noclip);}</style><filter id="luminosity-noclip" x="2.18" y="3" width="76.33" height="75.4" filterUnits="userSpaceOnUse" color-interpolation-filters="sRGB"><feFlood flood-color="#fff" result="bg"/><feBlend in="SourceGraphic" in2="bg"/></filter><mask id="mask" x="2.18" y="3" width="76.33" height="75.4" maskUnits="userSpaceOnUse"><g class="cls-4"><path d="M43.31,26.22a2.49,2.49,0,0,1,4.31,0h0L54.44,38l4.85,8.39,6.16,10.67L50.07,19.93a4.26,4.26,0,0,0-2-2.25,4.19,4.19,0,0,0-1.82-.42H38.15a4.24,4.24,0,0,0-3.65,2.11L19.68,45A31.15,31.15,0,0,1,36,38.85Z"/><path d="M51.56,44.66a1.06,1.06,0,0,1-.46-.43L47,37.06a1.6,1.6,0,0,0-2.78,0l-2.38,4.18a.83.83,0,0,1-.8.41c-.82-.07-1.65-.11-2.49-.11A28.2,28.2,0,0,0,14.77,54.4a1.51,1.51,0,0,0,.73,2.25l9.85,3.8a1.5,1.5,0,0,0,1.9-.74,20.8,20.8,0,0,1,38.92,4.42A27.49,27.49,0,0,0,51.56,44.66Z"/></g></mask><linearGradient id="linear-gradient" x1="2.18" y1="40.7" x2="78.51" y2="40.7" gradientUnits="userSpaceOnUse"><stop offset="0" stop-color="#4b1613"/><stop offset="1" stop-color="#b91c1c"/></linearGradient></defs><path class="cls-1" d="M100,36l-2-5.13H89.8l-2,5.13H83.51l8.9-23.09h3L104.34,36Zm-8.7-9.15h5.16l-2.58-6.69Z"/><path class="cls-1" d="M106.52,26.92A9,9,0,1,1,122,33.31a9,9,0,0,1-11.41,1.12v8.64h-4Zm12.59-3.54A5,5,0,0,0,112,30.46a5,5,0,0,0,8.57-3.54A4.82,4.82,0,0,0,119.11,23.38Z"/><path class="cls-1" d="M128.86,20.53a9,9,0,0,1,15.43,6.39,8.15,8.15,0,0,1-.09,1.22H130.38a5,5,0,0,0,8.1,2.6h4.93a9.1,9.1,0,0,1-3.3,3.79,9,9,0,0,1-13.9-7.61A8.71,8.71,0,0,1,128.86,20.53Zm1.69,4.6h9.38a5,5,0,0,0-1.82-2.35,4.84,4.84,0,0,0-2.86-.9,5,5,0,0,0-4.7,3.25Z"/><path class="cls-1" d="M158.26,17.88l-4.17,7.71L159.67,36h-4.56l-3.31-6.15L148.48,36h-4.56l5.61-10.37-4.16-7.71h4.56l1.87,3.46,1.9-3.46Z"/><path class="cls-1" d="M175.75,33.31a9,9,0,0,1-15.42-6.39,9,9,0,1,1,15.42,6.39Zm-9.93-2.85a5,5,0,0,0,7.09-7.11,5,5,0,0,0-7.09,7.11Z"/><path class="cls-1" d="M196.4,25.9V36h-4V25.9a4,4,0,0,0-4-4,3.84,3.84,0,0,0-2.82,1.17,3.92,3.92,0,0,0-1.18,2.85V36h-4V25.9a8,8,0,0,1,16.07,0Z"/><path class="cls-1" d="M95,42.31a11.25,11.25,0,0,1,6.52,2,11.5,11.5,0,0,1,4.22,5.24h-4.53A7.51,7.51,0,0,0,95,46.33a7.53,7.53,0,1,0,0,15.05,7.33,7.33,0,0,0,3.43-.83,7.53,7.53,0,0,0,2.66-2.26H95v-4h11.53a11.53,11.53,0,1,1-19.69-8.6A11.08,11.08,0,0,1,95,42.31Z"/><path class="cls-1" d="M108.61,56.33a9,9,0,0,1,9-9v4a4.86,4.86,0,0,0-3.54,1.46,4.8,4.8,0,0,0-1.47,3.53V65.4h-4Z"/><path class="cls-1" d="M133.68,62.75A9,9,0,1,1,120.9,50a9,9,0,1,1,12.78,12.78Zm-9.93-2.85a5,5,0,1,0-1.48-3.54A4.83,4.83,0,0,0,123.75,59.9Z"/><path class="cls-1" d="M138.34,57.35v-10h4v10a3.93,3.93,0,0,0,1.18,2.84,4,4,0,0,0,6.87-2.84v-10h4v10a8,8,0,1,1-16.06,0Z"/><path class="cls-1" d="M156.44,56.36a9.07,9.07,0,1,1,4,7.51v8.64h-4ZM169,52.82a5,5,0,1,0,1.46,3.54A4.83,4.83,0,0,0,169,52.82Z"/><g class="cls-2"><ellipse class="cls-3" cx="40.35" cy="40.7" rx="38.16" ry="37.7"/></g></svg>