<?xml version="1.0" encoding="UTF-8"?>
<svg id="Layer_1" data-name="Layer 1" xmlns="http://www.w3.org/2000/svg" viewBox="0 0 248.45 225.44">
  <defs>
    <style>
      .cls-1 {
        fill: #0779be;
      }
    </style>
  </defs>
  <path class="cls-1" d="M138.45,43.08c4.61-8,16.11-8.03,20.77-.1v.02l32.8,56.79,23.32,40.37,29.61,51.29L170.99,12.84c-1.92-4.66-5.32-8.66-9.87-10.84-2.69-1.29-5.68-2-8.77-2h-38.68c-7.24,0-13.93,3.87-17.55,10.13L24.81,133.62c22.42-16.97,49.62-27.5,78.57-29.81l35.06-60.73Z"/>
  <path class="cls-1" d="M178.14,131.8c-.92-.47-1.69-1.2-2.21-2.1l-19.7-34.48c-2.96-5.18-10.43-5.18-13.38,0l-11.47,20.12c-.77,1.35-2.26,2.11-3.81,1.98-3.95-.35-7.94-.55-11.99-.55-48.22,0-90.55,24.71-114.4,61.87-2.52,3.92-.83,9.16,3.51,10.84l47.37,18.25c3.52,1.36,7.55-.16,9.18-3.57,15.83-33.04,50.16-55.92,89.98-55.92,47.91,0,87.88,33.13,97.23,77.2-7.39-40.76-33.98-75.04-70.3-93.64Z"/>
</svg>