<?xml version="1.0" encoding="utf-8"?>
<!-- Generator: Adobe Illustrator 24.3.0, SVG Export Plug-In . SVG Version: 6.00 Build 0)  -->
<svg version="1.1" id="Layer_1" xmlns="http://www.w3.org/2000/svg" xmlns:xlink="http://www.w3.org/1999/xlink" x="0px" y="0px"
	 viewBox="0 0 201.1 82.1" style="enable-background:new 0 0 201.1 82.1;" xml:space="preserve">
<style type="text/css">
	.st0{filter:url(#Adobe_OpacityMaskFilter);}
	.st1{mask:url(#SVGID_1_);fill:url(#SVGID_2_);}
	.st2{filter:url(#Adobe_OpacityMaskFilter_1_);}
	.st3{mask:url(#SVGID_3_);fill:url(#SVGID_4_);}
	.st4{fill:#565655;}
	.st5{fill:url(#SVGID_5_);}
	.st6{fill:url(#SVGID_6_);}
	.st7{filter:url(#Adobe_OpacityMaskFilter_2_);}
	.st8{mask:url(#SVGID_7_);}
	.st9{fill:#FD4D1E;}
	.st10{filter:url(#Adobe_OpacityMaskFilter_3_);}
	.st11{mask:url(#SVGID_8_);}
	.st12{fill:url(#SVGID_9_);}
	.st13{fill:url(#SVGID_10_);}
	.st14{fill:url(#SVGID_11_);}
	.st15{fill:url(#SVGID_12_);}
	.st16{fill:url(#SVGID_13_);}
	.st17{fill:url(#SVGID_14_);}
	.st18{fill:url(#SVGID_15_);}
	.st19{fill:url(#SVGID_16_);}
	.st20{fill:url(#SVGID_17_);}
	.st21{fill:url(#SVGID_18_);}
	.st22{fill:url(#SVGID_19_);}
	.st23{fill:#FFFFFF;}
	.st24{filter:url(#Adobe_OpacityMaskFilter_4_);}
	.st25{mask:url(#SVGID_20_);fill:#3A75E9;}
	.st26{fill:#52575B;}
	.st27{fill:#3A75E9;}
	.st28{filter:url(#Adobe_OpacityMaskFilter_5_);}
	.st29{mask:url(#SVGID_21_);}
	.st30{fill:#0C1133;}
</style>
<defs>
	<filter id="Adobe_OpacityMaskFilter" filterUnits="userSpaceOnUse" x="414" y="252.3" width="48.1" height="47.5">
		<feFlood  style="flood-color:white;flood-opacity:1" result="back"/>
		<feBlend  in="SourceGraphic" in2="back" mode="normal"/>
	</filter>
</defs>
<mask maskUnits="userSpaceOnUse" x="414" y="252.3" width="48.1" height="47.5" id="SVGID_1_">
	<g class="st0">
		<g>
			<g>
				<path d="M439.9,266.9c0.6-1,2.1-1.1,2.7,0v0l4.3,7.4l3.1,5.3l3.9,6.7l-9.7-23.4c-0.3-0.6-0.7-1.1-1.3-1.4
					c-0.4-0.2-0.7-0.3-1.1-0.3h-2.1h-3c-0.9,0-1.8,0.5-2.3,1.3l-9.3,16.2c2.9-2.2,6.5-3.6,10.3-3.9L439.9,266.9z"/>
				<path d="M445.1,278.5c-0.1-0.1-0.2-0.2-0.3-0.3l-2.6-4.5c-0.4-0.7-1.4-0.7-1.8,0l-1.5,2.6c-0.1,0.2-0.3,0.3-0.5,0.3
					c-0.5,0-1-0.1-1.6-0.1c-6.3,0-11.9,3.2-15,8.1c-0.3,0.5-0.1,1.2,0.5,1.4l6.2,2.4c0.5,0.2,1,0,1.2-0.5c2.1-4.3,6.6-7.3,11.8-7.3
					c6.3,0,11.5,4.3,12.7,10.1C453.3,285.4,449.8,280.9,445.1,278.5z"/>
			</g>
		</g>
	</g>
</mask>
<linearGradient id="SVGID_2_" gradientUnits="userSpaceOnUse" x1="438.4477" y1="252.2707" x2="437.5523" y2="299.7293">
	<stop  offset="0" style="stop-color:#0F53F2"/>
	<stop  offset="1" style="stop-color:#6D98FE"/>
</linearGradient>
<ellipse class="st1" cx="438" cy="276" rx="24" ry="23.7"/>
<g>
	<defs>
		<filter id="Adobe_OpacityMaskFilter_1_" filterUnits="userSpaceOnUse" x="58.7" y="252.3" width="48.1" height="47.5">
			<feFlood  style="flood-color:white;flood-opacity:1" result="back"/>
			<feBlend  in="SourceGraphic" in2="back" mode="normal"/>
		</filter>
	</defs>
	<mask maskUnits="userSpaceOnUse" x="58.7" y="252.3" width="48.1" height="47.5" id="SVGID_3_">
		<g class="st2">
			<g>
				<g>
					<path d="M84.6,266.9c0.6-1,2.1-1.1,2.7,0v0l4.3,7.4l3.1,5.3l3.9,6.7l-9.7-23.4c-0.3-0.6-0.7-1.1-1.3-1.4
						c-0.4-0.2-0.7-0.3-1.1-0.3h-2.1h-3c-0.9,0-1.8,0.5-2.3,1.3l-9.3,16.2c2.9-2.2,6.5-3.6,10.3-3.9L84.6,266.9z"/>
					<path d="M89.8,278.5c-0.1-0.1-0.2-0.2-0.3-0.3l-2.6-4.5c-0.4-0.7-1.4-0.7-1.8,0l-1.5,2.6c-0.1,0.2-0.3,0.3-0.5,0.3
						c-0.5,0-1-0.1-1.6-0.1c-6.3,0-11.9,3.2-15,8.1c-0.3,0.5-0.1,1.2,0.5,1.4l6.2,2.4c0.5,0.2,1,0,1.2-0.5c2.1-4.3,6.6-7.3,11.8-7.3
						c6.3,0,11.5,4.3,12.7,10.1C98,285.4,94.6,280.9,89.8,278.5z"/>
				</g>
			</g>
		</g>
	</mask>
	<linearGradient id="SVGID_4_" gradientUnits="userSpaceOnUse" x1="83.1888" y1="252.2707" x2="82.2934" y2="299.7294">
		<stop  offset="0" style="stop-color:#0F53F2"/>
		<stop  offset="1" style="stop-color:#6D98FE"/>
	</linearGradient>
	<ellipse class="st3" cx="82.7" cy="276" rx="24" ry="23.7"/>
	<g>
		<g>
			<g>
				<path class="st4" d="M123.9,272l-1.2-3h-4.8l-1.2,3h-2.5l5.2-13.6h1.8l5.2,13.6H123.9z M118.8,266.7h3l-1.5-3.9L118.8,266.7z"/>
				<path class="st4" d="M127.7,266.7c0-1.5,0.5-2.7,1.6-3.8c1-1,2.3-1.6,3.8-1.6c1.5,0,2.7,0.5,3.8,1.6c1,1,1.6,2.3,1.6,3.8
					c0,1.5-0.5,2.7-1.6,3.8c-1,1-2.3,1.6-3.8,1.6c-1.1,0-2.1-0.3-2.9-0.9v5.1h-2.4V266.7z M135.1,264.6c-0.6-0.6-1.3-0.9-2.1-0.9
					c-0.8,0-1.5,0.3-2.1,0.9c-0.6,0.6-0.9,1.3-0.9,2.1c0,0.8,0.3,1.5,0.9,2.1c0.6,0.6,1.3,0.9,2.1,0.9c0.8,0,1.5-0.3,2.1-0.9
					c0.6-0.6,0.9-1.3,0.9-2.1C136,265.9,135.7,265.2,135.1,264.6z"/>
				<path class="st4" d="M140.9,263c1-1,2.3-1.6,3.8-1.6c1.5,0,2.7,0.5,3.8,1.6c1,1,1.6,2.3,1.6,3.8c0,0.2,0,0.5-0.1,0.7h-8.1
					c0.2,0.6,0.5,1.2,1,1.6c0.5,0.4,1.1,0.6,1.8,0.6c0.7,0,1.3-0.2,1.9-0.7h2.9c-0.4,0.9-1.1,1.7-1.9,2.2c-0.9,0.6-1.8,0.8-2.9,0.8
					c-1.5,0-2.7-0.5-3.8-1.6c-1-1-1.6-2.3-1.6-3.8C139.3,265.3,139.8,264,140.9,263z M141.9,265.7h5.5c-0.2-0.6-0.6-1-1.1-1.4
					c-0.5-0.4-1.1-0.5-1.7-0.5c-0.6,0-1.2,0.2-1.7,0.5C142.4,264.7,142.1,265.1,141.9,265.7z"/>
				<path class="st4" d="M158.1,261.4l-2.4,4.5l3.3,6.1h-2.7l-1.9-3.6l-1.9,3.6h-2.7l3.3-6.1l-2.4-4.5h2.7l1.1,2l1.1-2H158.1z"/>
				<path class="st4" d="M168.4,270.5c-1,1-2.3,1.6-3.8,1.6c-1.5,0-2.7-0.5-3.8-1.6c-1-1-1.6-2.3-1.6-3.8c0-1.5,0.5-2.7,1.6-3.8
					c1-1,2.3-1.6,3.8-1.6c1.5,0,2.7,0.5,3.8,1.6c1,1,1.6,2.3,1.6,3.8C170,268.2,169.5,269.4,168.4,270.5z M162.6,268.8
					c0.6,0.6,1.3,0.9,2.1,0.9c0.8,0,1.5-0.3,2.1-0.9c0.6-0.6,0.9-1.3,0.9-2.1c0-0.8-0.3-1.5-0.9-2.1c-0.6-0.6-1.3-0.9-2.1-0.9
					c-0.8,0-1.5,0.3-2.1,0.9c-0.6,0.6-0.9,1.3-0.9,2.1C161.7,267.5,162,268.2,162.6,268.8z"/>
				<path class="st4" d="M180.6,266.1v5.9h-2.4v-5.9c0-0.7-0.2-1.2-0.7-1.7c-0.5-0.5-1-0.7-1.7-0.7c-0.6,0-1.2,0.2-1.7,0.7
					c-0.5,0.5-0.7,1-0.7,1.7v5.9h-2.4v-5.9c0-1.3,0.5-2.4,1.4-3.3c0.9-0.9,2-1.4,3.3-1.4c1.3,0,2.4,0.5,3.3,1.4
					C180.1,263.7,180.6,264.8,180.6,266.1z"/>
			</g>
			<g>
				<path class="st4" d="M121,275.8c1.4,0,2.7,0.4,3.8,1.2c1.1,0.8,2,1.8,2.5,3.1h-2.7c-0.4-0.6-0.9-1.1-1.6-1.4
					c-0.6-0.3-1.3-0.5-2.1-0.5c-1.2,0-2.3,0.4-3.1,1.3c-0.9,0.9-1.3,1.9-1.3,3.1c0,1.2,0.4,2.3,1.3,3.1c0.9,0.9,1.9,1.3,3.1,1.3
					c0.7,0,1.4-0.2,2-0.5c0.6-0.3,1.1-0.8,1.6-1.3H121v-2.3h6.8c-0.1,1.8-0.8,3.4-2.1,4.6c-1.3,1.3-2.9,1.9-4.7,1.9
					c-1.9,0-3.5-0.7-4.8-2c-1.3-1.3-2-2.9-2-4.8c0-1.9,0.7-3.5,2-4.8C117.5,276.4,119.1,275.8,121,275.8z"/>
				<path class="st4" d="M129,284c0-1.5,0.5-2.7,1.6-3.7c1-1,2.3-1.5,3.8-1.5v2.4c-0.8,0-1.5,0.3-2.1,0.9c-0.6,0.6-0.9,1.3-0.9,2.1
					v5.3H129V284z"/>
				<path class="st4" d="M143.7,287.8c-1,1-2.3,1.6-3.8,1.6c-1.5,0-2.7-0.5-3.8-1.6c-1-1-1.6-2.3-1.6-3.8c0-1.5,0.5-2.7,1.6-3.8
					c1-1,2.3-1.6,3.8-1.6c1.5,0,2.7,0.5,3.8,1.6c1,1,1.6,2.3,1.6,3.8C145.3,285.5,144.7,286.8,143.7,287.8z M137.9,286.1
					c0.6,0.6,1.3,0.9,2.1,0.9c0.8,0,1.5-0.3,2.1-0.9c0.6-0.6,0.9-1.3,0.9-2.1c0-0.8-0.3-1.5-0.9-2.1c-0.6-0.6-1.3-0.9-2.1-0.9
					c-0.8,0-1.5,0.3-2.1,0.9c-0.6,0.6-0.9,1.3-0.9,2.1C137,284.8,137.3,285.5,137.9,286.1z"/>
				<path class="st4" d="M146.4,284.6v-5.9h2.3v5.9c0,0.6,0.2,1.2,0.7,1.7c0.5,0.5,1,0.7,1.7,0.7c0.7,0,1.2-0.2,1.7-0.7
					c0.5-0.5,0.7-1,0.7-1.7v-5.9h2.4v5.9c0,1.3-0.5,2.4-1.4,3.3c-0.9,0.9-2,1.4-3.3,1.4c-1.3,0-2.4-0.5-3.3-1.4
					C146.9,287,146.4,285.9,146.4,284.6z"/>
				<path class="st4" d="M157.1,284c0-1.5,0.5-2.7,1.6-3.8c1-1,2.3-1.6,3.8-1.6c1.5,0,2.7,0.5,3.8,1.6c1,1,1.6,2.3,1.6,3.8
					c0,1.5-0.5,2.7-1.6,3.8c-1,1-2.3,1.6-3.8,1.6c-1.1,0-2.1-0.3-2.9-0.9v5.1h-2.4V284z M164.5,282c-0.6-0.6-1.3-0.9-2.1-0.9
					c-0.8,0-1.5,0.3-2.1,0.9c-0.6,0.6-0.9,1.3-0.9,2.1c0,0.8,0.3,1.5,0.9,2.1c0.6,0.6,1.3,0.9,2.1,0.9c0.8,0,1.5-0.3,2.1-0.9
					c0.6-0.6,0.9-1.3,0.9-2.1C165.3,283.2,165.1,282.5,164.5,282z"/>
			</g>
		</g>
	</g>
</g>
<g>
	<linearGradient id="SVGID_5_" gradientUnits="userSpaceOnUse" x1="741.9189" y1="263.4937" x2="762.7189" y2="296.2938">
		<stop  offset="0" style="stop-color:#0F53F2"/>
		<stop  offset="1" style="stop-color:#6D98FE"/>
	</linearGradient>
	<path class="st5" d="M752,266.2c0.6-1.1,2.3-1.1,2.9,0v0l4.6,8l3.3,5.7l4.1,7.2l-10.4-25c-0.3-0.7-0.7-1.2-1.4-1.5
		c-0.4-0.2-0.8-0.3-1.2-0.3h-2.2h-3.2c-1,0-2,0.5-2.5,1.4l-10,17.3c3.1-2.4,7-3.9,11-4.2L752,266.2z"/>
	<linearGradient id="SVGID_6_" gradientUnits="userSpaceOnUse" x1="736.7322" y1="266.7829" x2="757.5322" y2="299.5828">
		<stop  offset="0" style="stop-color:#0F53F2"/>
		<stop  offset="1" style="stop-color:#6D98FE"/>
	</linearGradient>
	<path class="st6" d="M757.6,278.7c-0.1-0.1-0.2-0.2-0.3-0.3l-2.8-4.8c-0.4-0.7-1.5-0.7-1.9,0l-1.6,2.8c-0.1,0.2-0.3,0.3-0.5,0.3
		c-0.6,0-1.1-0.1-1.7-0.1c-6.8,0-12.7,3.5-16,8.7c-0.4,0.5-0.1,1.3,0.5,1.5l6.6,2.6c0.5,0.2,1.1,0,1.3-0.5c2.2-4.6,7-7.8,12.6-7.8
		c6.7,0,12.3,4.6,13.6,10.8C766.4,286.1,762.6,281.3,757.6,278.7z"/>
</g>
<defs>
	<filter id="Adobe_OpacityMaskFilter_2_" filterUnits="userSpaceOnUse" x="414" y="48.3" width="48.1" height="47.5">
		<feFlood  style="flood-color:white;flood-opacity:1" result="back"/>
		<feBlend  in="SourceGraphic" in2="back" mode="normal"/>
	</filter>
</defs>
<mask maskUnits="userSpaceOnUse" x="414" y="48.3" width="48.1" height="47.5" id="SVGID_7_">
	<g class="st7">
		<g>
			<g>
				<path d="M439.9,62.9c0.6-1,2.1-1.1,2.7,0v0l4.3,7.4l3.1,5.3l3.9,6.7l-9.7-23.4c-0.3-0.6-0.7-1.1-1.3-1.4
					c-0.4-0.2-0.7-0.3-1.1-0.3h-2.1h-3c-0.9,0-1.8,0.5-2.3,1.3L425,74.7c2.9-2.2,6.5-3.6,10.3-3.9L439.9,62.9z"/>
				<path d="M445.1,74.5c-0.1-0.1-0.2-0.2-0.3-0.3l-2.6-4.5c-0.4-0.7-1.4-0.7-1.8,0l-1.5,2.6c-0.1,0.2-0.3,0.3-0.5,0.3
					c-0.5,0-1-0.1-1.6-0.1c-6.3,0-11.9,3.2-15,8.1c-0.3,0.5-0.1,1.2,0.5,1.4l6.2,2.4c0.5,0.2,1,0,1.2-0.5c2.1-4.3,6.6-7.3,11.8-7.3
					c6.3,0,11.5,4.3,12.7,10.1C453.3,81.4,449.8,76.9,445.1,74.5z"/>
			</g>
		</g>
	</g>
</mask>
<g class="st8">
	<ellipse class="st9" cx="438" cy="72" rx="24" ry="23.7"/>
</g>
<defs>
	<filter id="Adobe_OpacityMaskFilter_3_" filterUnits="userSpaceOnUse" x="2.2" y="3" width="76.3" height="75.4">
		<feFlood  style="flood-color:white;flood-opacity:1" result="back"/>
		<feBlend  in="SourceGraphic" in2="back" mode="normal"/>
	</filter>
</defs>
<mask maskUnits="userSpaceOnUse" x="2.2" y="3" width="76.3" height="75.4" id="SVGID_8_">
	<g class="st10">
		<g>
			<g>
				<path d="M43.3,26.2c1-1.7,3.3-1.7,4.3,0v0L54.4,38l4.8,8.4l6.2,10.7L50.1,19.9c-0.4-1-1.1-1.8-2.1-2.3c-0.6-0.3-1.2-0.4-1.8-0.4
					h-3.3h-4.8c-1.5,0-2.9,0.8-3.6,2.1L19.7,45c4.7-3.5,10.3-5.7,16.3-6.2L43.3,26.2z"/>
				<path d="M51.6,44.7c-0.2-0.1-0.4-0.2-0.5-0.4L47,37.1c-0.6-1.1-2.2-1.1-2.8,0l-2.4,4.2c-0.2,0.3-0.5,0.4-0.8,0.4
					c-0.8-0.1-1.7-0.1-2.5-0.1c-10,0-18.8,5.1-23.8,12.9c-0.5,0.8-0.2,1.9,0.7,2.3l9.8,3.8c0.7,0.3,1.6,0,1.9-0.7
					c3.3-6.9,10.4-11.6,18.7-11.6c10,0,18.3,6.9,20.2,16.1C64.6,55.7,59.1,48.5,51.6,44.7z"/>
			</g>
		</g>
	</g>
</mask>
<g class="st11">
	<ellipse class="st9" cx="40.3" cy="40.7" rx="38.2" ry="37.7"/>
</g>
<g>
	<g>
		<linearGradient id="SVGID_9_" gradientUnits="userSpaceOnUse" x1="88.3194" y1="23.6291" x2="107.7702" y2="23.6291">
			<stop  offset="0.6793" style="stop-color:#FBB040"/>
			<stop  offset="1" style="stop-color:#F7941D"/>
		</linearGradient>
		<path class="st12" d="M103.7,34.4l-1.9-4.8h-7.7l-1.9,4.8h-4l8.3-21.6h2.8l8.3,21.6H103.7z M95.6,25.9h4.8L98,19.6L95.6,25.9z"/>
		<linearGradient id="SVGID_10_" gradientUnits="userSpaceOnUse" x1="109.8076" y1="29.2924" x2="126.6911" y2="29.2924">
			<stop  offset="0.6793" style="stop-color:#FBB040"/>
			<stop  offset="1" style="stop-color:#F7941D"/>
		</linearGradient>
		<path class="st13" d="M109.8,26c0-2.3,0.8-4.3,2.5-6c1.6-1.6,3.6-2.5,6-2.5c2.3,0,4.3,0.8,6,2.5c1.6,1.6,2.5,3.6,2.5,6
			c0,2.3-0.8,4.3-2.5,6c-1.6,1.6-3.6,2.5-6,2.5c-1.7,0-3.3-0.5-4.7-1.4v8.1h-3.8V26z M121.6,22.7c-0.9-0.9-2-1.4-3.3-1.4
			c-1.3,0-2.4,0.5-3.3,1.4c-0.9,0.9-1.4,2-1.4,3.3c0,1.3,0.5,2.4,1.4,3.3c0.9,0.9,2,1.4,3.3,1.4c1.3,0,2.4-0.5,3.3-1.4
			c0.9-0.9,1.4-2,1.4-3.3C122.9,24.7,122.5,23.6,121.6,22.7z"/>
		<linearGradient id="SVGID_11_" gradientUnits="userSpaceOnUse" x1="128.1999" y1="25.9712" x2="145.0837" y2="25.9712">
			<stop  offset="0.6793" style="stop-color:#FBB040"/>
			<stop  offset="1" style="stop-color:#F7941D"/>
		</linearGradient>
		<path class="st14" d="M130.7,20c1.6-1.6,3.6-2.5,6-2.5c2.3,0,4.3,0.8,6,2.5c1.6,1.6,2.5,3.6,2.5,6c0,0.4,0,0.8-0.1,1.1h-12.9
			c0.2,1,0.8,1.9,1.6,2.5c0.8,0.7,1.8,1,2.9,1c1.1,0,2.1-0.4,3-1.1h4.6c-0.7,1.5-1.7,2.6-3.1,3.5c-1.4,0.9-2.9,1.3-4.5,1.3
			c-2.3,0-4.3-0.8-6-2.5c-1.6-1.6-2.5-3.6-2.5-6C128.2,23.6,129,21.7,130.7,20z M132.2,24.3h8.8c-0.3-0.9-0.9-1.6-1.7-2.2
			c-0.8-0.6-1.7-0.8-2.7-0.8c-1,0-1.9,0.3-2.7,0.8C133.2,22.7,132.6,23.4,132.2,24.3z"/>
		<linearGradient id="SVGID_12_" gradientUnits="userSpaceOnUse" x1="144.7395" y1="25.9712" x2="159.4531" y2="25.9712">
			<stop  offset="0.6793" style="stop-color:#FBB040"/>
			<stop  offset="1" style="stop-color:#F7941D"/>
		</linearGradient>
		<path class="st15" d="M158.1,17.5l-3.9,7.2l5.2,9.7h-4.3l-3.1-5.7l-3.1,5.7h-4.3l5.2-9.7l-3.9-7.2h4.3l1.7,3.2l1.8-3.2H158.1z"/>
		<linearGradient id="SVGID_13_" gradientUnits="userSpaceOnUse" x1="160.0619" y1="25.9712" x2="176.946" y2="25.9712">
			<stop  offset="0.6793" style="stop-color:#FBB040"/>
			<stop  offset="1" style="stop-color:#F7941D"/>
		</linearGradient>
		<path class="st16" d="M174.5,31.9c-1.6,1.6-3.6,2.5-6,2.5c-2.3,0-4.3-0.8-6-2.5c-1.6-1.6-2.5-3.6-2.5-6c0-2.3,0.8-4.3,2.5-6
			c1.6-1.6,3.6-2.5,6-2.5c2.3,0,4.3,0.8,6,2.5c1.6,1.6,2.5,3.6,2.5,6C176.9,28.3,176.1,30.3,174.5,31.9z M165.2,29.3
			c0.9,0.9,2,1.4,3.3,1.4c1.3,0,2.4-0.5,3.3-1.4c0.9-0.9,1.4-2,1.4-3.3c0-1.3-0.5-2.4-1.4-3.3c-0.9-0.9-2-1.4-3.3-1.4
			c-1.3,0-2.4,0.5-3.3,1.4c-0.9,0.9-1.4,2-1.4,3.3C163.8,27.3,164.3,28.4,165.2,29.3z"/>
		<linearGradient id="SVGID_14_" gradientUnits="userSpaceOnUse" x1="178.7451" y1="25.9712" x2="193.7503" y2="25.9712">
			<stop  offset="0.6793" style="stop-color:#FBB040"/>
			<stop  offset="1" style="stop-color:#F7941D"/>
		</linearGradient>
		<path class="st17" d="M193.8,25v9.4H190V25c0-1-0.4-1.9-1.1-2.7c-0.7-0.7-1.6-1.1-2.7-1.1c-1,0-1.9,0.4-2.6,1.1
			c-0.7,0.7-1.1,1.6-1.1,2.7v9.4h-3.8V25c0-2.1,0.7-3.8,2.2-5.3c1.5-1.5,3.2-2.2,5.3-2.2c2.1,0,3.9,0.7,5.3,2.2
			C193,21.2,193.8,23,193.8,25z"/>
	</g>
	<g>
		<linearGradient id="SVGID_15_" gradientUnits="userSpaceOnUse" x1="88.3194" y1="51.1249" x2="109.8608" y2="51.1249">
			<stop  offset="0.6793" style="stop-color:#FBB040"/>
			<stop  offset="1" style="stop-color:#F7941D"/>
		</linearGradient>
		<path class="st18" d="M99.1,40.3c2.2,0,4.3,0.6,6.1,1.9c1.8,1.3,3.1,2.9,3.9,4.9h-4.2c-0.7-0.9-1.5-1.7-2.5-2.2
			c-1-0.5-2.1-0.8-3.3-0.8c-1.9,0-3.6,0.7-5,2.1c-1.4,1.4-2.1,3-2.1,5c0,1.9,0.7,3.6,2.1,5c1.4,1.4,3,2.1,5,2.1
			c1.1,0,2.2-0.3,3.2-0.8c1-0.5,1.8-1.2,2.5-2.1h-5.7v-3.7h10.8c-0.1,2.9-1.2,5.3-3.3,7.4c-2.1,2-4.6,3-7.5,3c-3,0-5.5-1-7.6-3.1
			c-2.1-2.1-3.1-4.6-3.1-7.6c0-3,1-5.5,3.1-7.6C93.6,41.4,96.1,40.3,99.1,40.3z"/>
		<linearGradient id="SVGID_16_" gradientUnits="userSpaceOnUse" x1="111.7662" y1="53.467" x2="120.208" y2="53.467">
			<stop  offset="0.6793" style="stop-color:#FBB040"/>
			<stop  offset="1" style="stop-color:#F7941D"/>
		</linearGradient>
		<path class="st19" d="M111.8,53.4c0-2.3,0.8-4.3,2.5-6c1.6-1.6,3.6-2.5,6-2.5v3.8c-1.3,0-2.4,0.5-3.3,1.4c-0.9,0.9-1.4,2-1.4,3.3
			v8.5h-3.8V53.4z"/>
		<linearGradient id="SVGID_17_" gradientUnits="userSpaceOnUse" x1="120.7638" y1="53.467" x2="137.6474" y2="53.467">
			<stop  offset="0.6793" style="stop-color:#FBB040"/>
			<stop  offset="1" style="stop-color:#F7941D"/>
		</linearGradient>
		<path class="st20" d="M135.2,59.4c-1.6,1.6-3.6,2.5-6,2.5c-2.3,0-4.3-0.8-6-2.5c-1.6-1.6-2.5-3.6-2.5-6c0-2.3,0.8-4.3,2.5-6
			c1.6-1.6,3.6-2.5,6-2.5c2.3,0,4.3,0.8,6,2.5c1.6,1.6,2.5,3.6,2.5,6C137.6,55.8,136.8,57.8,135.2,59.4z M125.9,56.8
			c0.9,0.9,2,1.4,3.3,1.4c1.3,0,2.4-0.5,3.3-1.4c0.9-0.9,1.4-2,1.4-3.3c0-1.3-0.5-2.4-1.4-3.3c-0.9-0.9-2-1.4-3.3-1.4
			c-1.3,0-2.4,0.5-3.3,1.4c-0.9,0.9-1.4,2-1.4,3.3C124.5,54.8,125,55.9,125.9,56.8z"/>
		<linearGradient id="SVGID_18_" gradientUnits="userSpaceOnUse" x1="139.5262" y1="53.467" x2="154.5312" y2="53.467">
			<stop  offset="0.6793" style="stop-color:#FBB040"/>
			<stop  offset="1" style="stop-color:#F7941D"/>
		</linearGradient>
		<path class="st21" d="M139.5,54.4V45h3.7v9.4c0,1,0.4,1.9,1.1,2.6c0.7,0.7,1.6,1.1,2.7,1.1c1,0,1.9-0.4,2.7-1.1
			c0.7-0.7,1.1-1.6,1.1-2.6V45h3.8v9.4c0,2.1-0.7,3.9-2.2,5.3c-1.5,1.5-3.2,2.2-5.3,2.2c-2.1,0-3.8-0.7-5.3-2.2
			C140.3,58.2,139.5,56.5,139.5,54.4z"/>
		<linearGradient id="SVGID_19_" gradientUnits="userSpaceOnUse" x1="156.4366" y1="56.7881" x2="173.3202" y2="56.7881">
			<stop  offset="0.6793" style="stop-color:#FBB040"/>
			<stop  offset="1" style="stop-color:#F7941D"/>
		</linearGradient>
		<path class="st22" d="M156.4,53.5c0-2.3,0.8-4.3,2.5-6c1.6-1.6,3.6-2.5,6-2.5c2.3,0,4.3,0.8,6,2.5c1.6,1.6,2.5,3.6,2.5,6
			c0,2.3-0.8,4.3-2.5,6c-1.6,1.6-3.6,2.5-6,2.5c-1.7,0-3.3-0.5-4.7-1.4v8.1h-3.8V53.5z M168.2,50.2c-0.9-0.9-2-1.4-3.3-1.4
			c-1.3,0-2.4,0.5-3.3,1.4c-0.9,0.9-1.4,2-1.4,3.3c0,1.3,0.5,2.4,1.4,3.3c0.9,0.9,2,1.4,3.3,1.4c1.3,0,2.4-0.5,3.3-1.4
			c0.9-0.9,1.4-2,1.4-3.3C169.6,52.2,169.1,51.1,168.2,50.2z"/>
	</g>
</g>
<g>
	<g>
		<path class="st9" d="M752,62.2c0.6-1.1,2.3-1.1,2.9,0v0l4.6,8l3.3,5.7l4.1,7.2l-10.4-25c-0.3-0.7-0.7-1.2-1.4-1.5
			c-0.4-0.2-0.8-0.3-1.2-0.3h-2.2h-3.2c-1,0-2,0.5-2.5,1.4l-10,17.3c3.1-2.4,7-3.9,11-4.2L752,62.2z"/>
	</g>
	<g>
		<path class="st9" d="M757.6,74.7c-0.1-0.1-0.2-0.2-0.3-0.3l-2.8-4.8c-0.4-0.7-1.5-0.7-1.9,0l-1.6,2.8c-0.1,0.2-0.3,0.3-0.5,0.3
			c-0.6,0-1.1-0.1-1.7-0.1c-6.8,0-12.7,3.5-16,8.7c-0.4,0.5-0.1,1.3,0.5,1.5l6.6,2.6c0.5,0.2,1.1,0,1.3-0.5c2.2-4.6,7-7.8,12.6-7.8
			c6.7,0,12.3,4.6,13.6,10.8C766.4,82.1,762.6,77.3,757.6,74.7z"/>
	</g>
</g>
<image style="overflow:visible;" width="1600" height="827" xlink:href="1FF8FDEB.jpg"  transform="matrix(0.3525 0 0 0.3525 -15 -536.7587)">
</image>
<rect x="-15" y="-536.8" class="st23" width="118.9" height="27.5"/>
<g>
	<defs>
		<filter id="Adobe_OpacityMaskFilter_4_" filterUnits="userSpaceOnUse" x="36" y="-534" width="22.2" height="21.9">
			<feFlood  style="flood-color:white;flood-opacity:1" result="back"/>
			<feBlend  in="SourceGraphic" in2="back" mode="normal"/>
		</filter>
	</defs>
	<mask maskUnits="userSpaceOnUse" x="36" y="-534" width="22.2" height="21.9" id="SVGID_20_">
		<g class="st24">
			<g>
				<g>
					<path d="M48-527.2c0.3-0.5,1-0.5,1.3,0v0l2,3.4l1.4,2.4l1.8,3.1L49.9-529c-0.1-0.3-0.3-0.5-0.6-0.7c-0.2-0.1-0.3-0.1-0.5-0.1
						h-0.9h-1.4c-0.4,0-0.8,0.2-1.1,0.6l-4.3,7.5c1.4-1,3-1.7,4.8-1.8L48-527.2z"/>
					<path d="M50.4-521.8c-0.1,0-0.1-0.1-0.1-0.1l-1.2-2.1c-0.2-0.3-0.6-0.3-0.8,0l-0.7,1.2c0,0.1-0.1,0.1-0.2,0.1
						c-0.2,0-0.5,0-0.7,0c-2.9,0-5.5,1.5-6.9,3.7c-0.2,0.2-0.1,0.6,0.2,0.7l2.9,1.1c0.2,0.1,0.5,0,0.6-0.2c1-2,3-3.4,5.4-3.4
						c2.9,0,5.3,2,5.9,4.7C54.2-518.6,52.6-520.7,50.4-521.8z"/>
				</g>
			</g>
		</g>
	</mask>
	<ellipse class="st25" cx="47.1" cy="-523" rx="11.1" ry="11"/>
	<g>
		<g>
			<path class="st26" d="M66.1-524.8l-0.5-1.4h-2.2l-0.5,1.4h-1.2l2.4-6.3h0.8l2.4,6.3H66.1z M63.8-527.3h1.4l-0.7-1.8L63.8-527.3z"
				/>
			<path class="st26" d="M67.9-527.3c0-0.7,0.2-1.3,0.7-1.7c0.5-0.5,1.1-0.7,1.7-0.7c0.7,0,1.3,0.2,1.7,0.7c0.5,0.5,0.7,1.1,0.7,1.7
				c0,0.7-0.2,1.3-0.7,1.7c-0.5,0.5-1.1,0.7-1.7,0.7c-0.5,0-1-0.1-1.4-0.4v2.3h-1.1V-527.3z M71.3-528.2c-0.3-0.3-0.6-0.4-1-0.4
				c-0.4,0-0.7,0.1-1,0.4c-0.3,0.3-0.4,0.6-0.4,1c0,0.4,0.1,0.7,0.4,1c0.3,0.3,0.6,0.4,1,0.4c0.4,0,0.7-0.1,1-0.4
				c0.3-0.3,0.4-0.6,0.4-1C71.7-527.7,71.6-528,71.3-528.2z"/>
			<path class="st26" d="M74-529c0.5-0.5,1.1-0.7,1.7-0.7c0.7,0,1.3,0.2,1.7,0.7c0.5,0.5,0.7,1.1,0.7,1.7c0,0.1,0,0.2,0,0.3h-3.8
				c0.1,0.3,0.2,0.5,0.5,0.7c0.2,0.2,0.5,0.3,0.8,0.3c0.3,0,0.6-0.1,0.9-0.3h1.3c-0.2,0.4-0.5,0.8-0.9,1c-0.4,0.3-0.8,0.4-1.3,0.4
				c-0.7,0-1.3-0.2-1.7-0.7c-0.5-0.5-0.7-1.1-0.7-1.7C73.2-528,73.5-528.5,74-529z M74.4-527.8H77c-0.1-0.3-0.3-0.5-0.5-0.6
				c-0.2-0.2-0.5-0.2-0.8-0.2c-0.3,0-0.5,0.1-0.8,0.2C74.7-528.2,74.5-528,74.4-527.8z"/>
			<path class="st26" d="M81.9-529.7l-1.1,2.1l1.5,2.8h-1.2l-0.9-1.7l-0.9,1.7H78l1.5-2.8l-1.1-2.1h1.2l0.5,0.9l0.5-0.9H81.9z"/>
			<path class="st26" d="M86.7-525.5c-0.5,0.5-1.1,0.7-1.7,0.7c-0.7,0-1.3-0.2-1.7-0.7c-0.5-0.5-0.7-1.1-0.7-1.7
				c0-0.7,0.2-1.3,0.7-1.7c0.5-0.5,1.1-0.7,1.7-0.7c0.7,0,1.3,0.2,1.7,0.7c0.5,0.5,0.7,1.1,0.7,1.7C87.4-526.6,87.2-526,86.7-525.5z
				 M84-526.3c0.3,0.3,0.6,0.4,1,0.4c0.4,0,0.7-0.1,1-0.4c0.3-0.3,0.4-0.6,0.4-1c0-0.4-0.1-0.7-0.4-1c-0.3-0.3-0.6-0.4-1-0.4
				c-0.4,0-0.7,0.1-1,0.4c-0.3,0.3-0.4,0.6-0.4,1C83.6-526.9,83.7-526.6,84-526.3z"/>
			<path class="st26" d="M92.3-527.6v2.7h-1.1v-2.7c0-0.3-0.1-0.6-0.3-0.8c-0.2-0.2-0.5-0.3-0.8-0.3c-0.3,0-0.6,0.1-0.8,0.3
				s-0.3,0.5-0.3,0.8v2.7h-1.1v-2.7c0-0.6,0.2-1.1,0.6-1.5c0.4-0.4,0.9-0.6,1.5-0.6c0.6,0,1.1,0.2,1.5,0.6
				C92.1-528.7,92.3-528.2,92.3-527.6z"/>
		</g>
		<g>
			<path class="st27" d="M64.8-523.1c0.7,0,1.2,0.2,1.8,0.5c0.5,0.4,0.9,0.8,1.1,1.4h-1.2c-0.2-0.3-0.4-0.5-0.7-0.6
				c-0.3-0.2-0.6-0.2-1-0.2c-0.6,0-1,0.2-1.4,0.6c-0.4,0.4-0.6,0.9-0.6,1.4c0,0.6,0.2,1,0.6,1.4c0.4,0.4,0.9,0.6,1.4,0.6
				c0.3,0,0.6-0.1,0.9-0.2c0.3-0.1,0.5-0.4,0.7-0.6h-1.7v-1.1h3.1c0,0.8-0.3,1.6-1,2.1c-0.6,0.6-1.3,0.9-2.2,0.9
				c-0.9,0-1.6-0.3-2.2-0.9c-0.6-0.6-0.9-1.3-0.9-2.2s0.3-1.6,0.9-2.2C63.2-522.8,63.9-523.1,64.8-523.1z"/>
			<path class="st27" d="M68.5-519.3c0-0.7,0.2-1.3,0.7-1.7c0.5-0.5,1.1-0.7,1.7-0.7v1.1c-0.4,0-0.7,0.1-1,0.4
				c-0.3,0.3-0.4,0.6-0.4,1v2.5h-1.1V-519.3z"/>
			<path class="st27" d="M75.3-517.5c-0.5,0.5-1.1,0.7-1.7,0.7c-0.7,0-1.3-0.2-1.7-0.7c-0.5-0.5-0.7-1.1-0.7-1.7
				c0-0.7,0.2-1.3,0.7-1.7c0.5-0.5,1.1-0.7,1.7-0.7c0.7,0,1.3,0.2,1.7,0.7c0.5,0.5,0.7,1.1,0.7,1.7C76-518.6,75.7-518,75.3-517.5z
				 M72.6-518.3c0.3,0.3,0.6,0.4,1,0.4c0.4,0,0.7-0.1,1-0.4c0.3-0.3,0.4-0.6,0.4-1c0-0.4-0.1-0.7-0.4-1c-0.3-0.3-0.6-0.4-1-0.4
				c-0.4,0-0.7,0.1-1,0.4c-0.3,0.3-0.4,0.6-0.4,1C72.2-518.9,72.3-518.6,72.6-518.3z"/>
			<path class="st27" d="M76.5-519v-2.7h1.1v2.7c0,0.3,0.1,0.6,0.3,0.8c0.2,0.2,0.5,0.3,0.8,0.3c0.3,0,0.6-0.1,0.8-0.3
				c0.2-0.2,0.3-0.5,0.3-0.8v-2.7h1.1v2.7c0,0.6-0.2,1.1-0.6,1.5c-0.4,0.4-0.9,0.6-1.5,0.6c-0.6,0-1.1-0.2-1.5-0.6
				C76.7-517.9,76.5-518.4,76.5-519z"/>
			<path class="st27" d="M81.4-519.3c0-0.7,0.2-1.3,0.7-1.7c0.5-0.5,1.1-0.7,1.7-0.7c0.7,0,1.3,0.2,1.7,0.7c0.5,0.5,0.7,1.1,0.7,1.7
				c0,0.7-0.2,1.3-0.7,1.7s-1.1,0.7-1.7,0.7c-0.5,0-1-0.1-1.4-0.4v2.3h-1.1V-519.3z M84.9-520.2c-0.3-0.3-0.6-0.4-1-0.4
				c-0.4,0-0.7,0.1-1,0.4c-0.3,0.3-0.4,0.6-0.4,1c0,0.4,0.1,0.7,0.4,1c0.3,0.3,0.6,0.4,1,0.4c0.4,0,0.7-0.1,1-0.4
				c0.3-0.3,0.4-0.6,0.4-1C85.3-519.7,85.1-520,84.9-520.2z"/>
		</g>
	</g>
</g>
<image style="overflow:visible;" width="1600" height="827" xlink:href="1FF8FDE9.jpg"  transform="matrix(0.3525 0 0 0.3525 579 -536.7587)">
</image>
<rect x="579" y="-536.8" class="st23" width="118.9" height="27.5"/>
<defs>
	<filter id="Adobe_OpacityMaskFilter_5_" filterUnits="userSpaceOnUse" x="630" y="-534" width="22.2" height="21.9">
		<feFlood  style="flood-color:white;flood-opacity:1" result="back"/>
		<feBlend  in="SourceGraphic" in2="back" mode="normal"/>
	</filter>
</defs>
<mask maskUnits="userSpaceOnUse" x="630" y="-534" width="22.2" height="21.9" id="SVGID_21_">
	<g class="st28">
		<g>
			<g>
				<path d="M642-527.2c0.3-0.5,1-0.5,1.3,0v0l2,3.4l1.4,2.4l1.8,3.1l-4.5-10.8c-0.1-0.3-0.3-0.5-0.6-0.7c-0.2-0.1-0.3-0.1-0.5-0.1
					h-0.9h-1.4c-0.4,0-0.8,0.2-1.1,0.6l-4.3,7.5c1.4-1,3-1.7,4.8-1.8L642-527.2z"/>
				<path d="M644.4-521.8c-0.1,0-0.1-0.1-0.1-0.1l-1.2-2.1c-0.2-0.3-0.6-0.3-0.8,0l-0.7,1.2c0,0.1-0.1,0.1-0.2,0.1
					c-0.2,0-0.5,0-0.7,0c-2.9,0-5.5,1.5-6.9,3.7c-0.2,0.2-0.1,0.6,0.2,0.7l2.9,1.1c0.2,0.1,0.5,0,0.6-0.2c1-2,3-3.4,5.4-3.4
					c2.9,0,5.3,2,5.9,4.7C648.2-518.6,646.6-520.7,644.4-521.8z"/>
			</g>
		</g>
	</g>
</mask>
<g class="st29">
	<ellipse class="st9" cx="641.1" cy="-523" rx="11.1" ry="11"/>
</g>
<g>
	<g>
		<path class="st30" d="M660.1-524.8l-0.5-1.4h-2.2l-0.5,1.4h-1.2l2.4-6.3h0.8l2.4,6.3H660.1z M657.8-527.3h1.4l-0.7-1.8
			L657.8-527.3z"/>
		<path class="st30" d="M661.9-527.3c0-0.7,0.2-1.3,0.7-1.7c0.5-0.5,1.1-0.7,1.7-0.7c0.7,0,1.3,0.2,1.7,0.7c0.5,0.5,0.7,1.1,0.7,1.7
			c0,0.7-0.2,1.3-0.7,1.7c-0.5,0.5-1.1,0.7-1.7,0.7c-0.5,0-1-0.1-1.4-0.4v2.3h-1.1V-527.3z M665.3-528.2c-0.3-0.3-0.6-0.4-1-0.4
			c-0.4,0-0.7,0.1-1,0.4c-0.3,0.3-0.4,0.6-0.4,1c0,0.4,0.1,0.7,0.4,1c0.3,0.3,0.6,0.4,1,0.4c0.4,0,0.7-0.1,1-0.4
			c0.3-0.3,0.4-0.6,0.4-1C665.7-527.7,665.6-528,665.3-528.2z"/>
		<path class="st30" d="M668-529c0.5-0.5,1.1-0.7,1.7-0.7c0.7,0,1.3,0.2,1.7,0.7c0.5,0.5,0.7,1.1,0.7,1.7c0,0.1,0,0.2,0,0.3h-3.8
			c0.1,0.3,0.2,0.5,0.5,0.7c0.2,0.2,0.5,0.3,0.8,0.3c0.3,0,0.6-0.1,0.9-0.3h1.3c-0.2,0.4-0.5,0.8-0.9,1c-0.4,0.3-0.8,0.4-1.3,0.4
			c-0.7,0-1.3-0.2-1.7-0.7c-0.5-0.5-0.7-1.1-0.7-1.7C667.2-528,667.5-528.5,668-529z M668.4-527.8h2.5c-0.1-0.3-0.3-0.5-0.5-0.6
			c-0.2-0.2-0.5-0.2-0.8-0.2c-0.3,0-0.5,0.1-0.8,0.2C668.7-528.2,668.5-528,668.4-527.8z"/>
		<path class="st30" d="M675.9-529.7l-1.1,2.1l1.5,2.8h-1.2l-0.9-1.7l-0.9,1.7H672l1.5-2.8l-1.1-2.1h1.2l0.5,0.9l0.5-0.9H675.9z"/>
		<path class="st30" d="M680.7-525.5c-0.5,0.5-1.1,0.7-1.7,0.7c-0.7,0-1.3-0.2-1.7-0.7c-0.5-0.5-0.7-1.1-0.7-1.7
			c0-0.7,0.2-1.3,0.7-1.7c0.5-0.5,1.1-0.7,1.7-0.7c0.7,0,1.3,0.2,1.7,0.7c0.5,0.5,0.7,1.1,0.7,1.7
			C681.4-526.6,681.2-526,680.7-525.5z M678-526.3c0.3,0.3,0.6,0.4,1,0.4c0.4,0,0.7-0.1,1-0.4c0.3-0.3,0.4-0.6,0.4-1
			c0-0.4-0.1-0.7-0.4-1c-0.3-0.3-0.6-0.4-1-0.4c-0.4,0-0.7,0.1-1,0.4c-0.3,0.3-0.4,0.6-0.4,1C677.6-526.9,677.7-526.6,678-526.3z"/>
		<path class="st30" d="M686.3-527.6v2.7h-1.1v-2.7c0-0.3-0.1-0.6-0.3-0.8s-0.5-0.3-0.8-0.3c-0.3,0-0.6,0.1-0.8,0.3
			s-0.3,0.5-0.3,0.8v2.7h-1.1v-2.7c0-0.6,0.2-1.1,0.6-1.5c0.4-0.4,0.9-0.6,1.5-0.6c0.6,0,1.1,0.2,1.5,0.6
			C686.1-528.7,686.3-528.2,686.3-527.6z"/>
	</g>
	<g>
		<path class="st30" d="M658.8-523.1c0.7,0,1.2,0.2,1.8,0.5c0.5,0.4,0.9,0.8,1.1,1.4h-1.2c-0.2-0.3-0.4-0.5-0.7-0.6
			c-0.3-0.2-0.6-0.2-1-0.2c-0.6,0-1,0.2-1.4,0.6c-0.4,0.4-0.6,0.9-0.6,1.4c0,0.6,0.2,1,0.6,1.4c0.4,0.4,0.9,0.6,1.4,0.6
			c0.3,0,0.6-0.1,0.9-0.2c0.3-0.1,0.5-0.4,0.7-0.6h-1.7v-1.1h3.1c0,0.8-0.3,1.6-1,2.1c-0.6,0.6-1.3,0.9-2.2,0.9
			c-0.9,0-1.6-0.3-2.2-0.9c-0.6-0.6-0.9-1.3-0.9-2.2s0.3-1.6,0.9-2.2C657.2-522.8,657.9-523.1,658.8-523.1z"/>
		<path class="st30" d="M662.5-519.3c0-0.7,0.2-1.3,0.7-1.7c0.5-0.5,1.1-0.7,1.7-0.7v1.1c-0.4,0-0.7,0.1-1,0.4
			c-0.3,0.3-0.4,0.6-0.4,1v2.5h-1.1V-519.3z"/>
		<path class="st30" d="M669.3-517.5c-0.5,0.5-1.1,0.7-1.7,0.7c-0.7,0-1.3-0.2-1.7-0.7c-0.5-0.5-0.7-1.1-0.7-1.7
			c0-0.7,0.2-1.3,0.7-1.7c0.5-0.5,1.1-0.7,1.7-0.7c0.7,0,1.3,0.2,1.7,0.7c0.5,0.5,0.7,1.1,0.7,1.7C670-518.6,669.7-518,669.3-517.5z
			 M666.6-518.3c0.3,0.3,0.6,0.4,1,0.4c0.4,0,0.7-0.1,1-0.4c0.3-0.3,0.4-0.6,0.4-1c0-0.4-0.1-0.7-0.4-1c-0.3-0.3-0.6-0.4-1-0.4
			c-0.4,0-0.7,0.1-1,0.4c-0.3,0.3-0.4,0.6-0.4,1C666.2-518.9,666.3-518.6,666.6-518.3z"/>
		<path class="st30" d="M670.5-519v-2.7h1.1v2.7c0,0.3,0.1,0.6,0.3,0.8c0.2,0.2,0.5,0.3,0.8,0.3c0.3,0,0.6-0.1,0.8-0.3
			c0.2-0.2,0.3-0.5,0.3-0.8v-2.7h1.1v2.7c0,0.6-0.2,1.1-0.6,1.5c-0.4,0.4-0.9,0.6-1.5,0.6c-0.6,0-1.1-0.2-1.5-0.6
			C670.7-517.9,670.5-518.4,670.5-519z"/>
		<path class="st30" d="M675.4-519.3c0-0.7,0.2-1.3,0.7-1.7c0.5-0.5,1.1-0.7,1.7-0.7c0.7,0,1.3,0.2,1.7,0.7c0.5,0.5,0.7,1.1,0.7,1.7
			c0,0.7-0.2,1.3-0.7,1.7s-1.1,0.7-1.7,0.7c-0.5,0-1-0.1-1.4-0.4v2.3h-1.1V-519.3z M678.9-520.2c-0.3-0.3-0.6-0.4-1-0.4
			c-0.4,0-0.7,0.1-1,0.4c-0.3,0.3-0.4,0.6-0.4,1c0,0.4,0.1,0.7,0.4,1c0.3,0.3,0.6,0.4,1,0.4c0.4,0,0.7-0.1,1-0.4
			c0.3-0.3,0.4-0.6,0.4-1C679.3-519.7,679.1-520,678.9-520.2z"/>
	</g>
</g>
<g>
	<path class="st30" d="M725.2-619.9c-0.4-0.4-0.8-0.9-1.3-1.3c-3.5-3.3-7.9-5.7-12.8-6.9c-0.9-0.2-1.8-0.4-2.7-0.5c0,0,0,0-0.1,0
		c-0.1,0-0.2,0-0.3,0c0,0-0.1,0-0.1,0c-0.1,0-0.2,0-0.3,0c0,0-0.1,0-0.1,0c-0.2,0-0.3,0-0.5-0.1c0,0-0.1,0-0.1,0c0,0,0,0,0,0
		c-0.1,0-0.1,0-0.2,0c0,0-0.1,0-0.1,0c-0.1,0-0.2,0-0.2,0l-0.1,0c-0.3,0-0.5,0-0.8,0c-0.1,0-0.1,0-0.2,0c-0.1,0-0.1,0-0.2,0
		c-0.1,0-0.2,0-0.2,0c-0.1,0-0.1,0-0.2,0c-0.1,0-0.3,0-0.4,0c0,0,0,0,0,0h-19.9c-0.3,0-0.5,0.2-0.5,0.5v3.2c0,0,0,4.2,0,5.2
		c0,0.1,0.1,0.2,0.1,0.3l6.7,6.7c0.2,0.2,0.5,0.2,0.7,0l3.2-3.2l3.5-3.5c0.1-0.1,0.2-0.1,0.3-0.1h3.3h3c1.1,0,2.3,0.1,3.3,0.3
		c0.2,0,0.3,0.1,0.5,0.1c1.1,0.3,2.1,0.6,3.2,1c1.2,0.5,2.3,1.1,3.3,1.8c1,0.7,2,1.5,2.9,2.4c0.9,0.9,1.7,1.9,2.4,2.9
		c0.7,1.1,1.3,2.2,1.8,3.3c0.4,0.9,0.7,1.8,0.9,2.8c0,0.1,0,0.1,0,0.2c0.4,1.5,0.6,3.1,0.6,4.7c0,1.6-0.2,3.2-0.6,4.8
		c0,0,0,0.1,0,0.1c0,0.1,0,0.1,0,0.2c-0.2,0.9-0.5,1.8-0.9,2.6c-0.5,1.2-1.1,2.3-1.8,3.3c-0.7,1-1.5,2-2.4,2.9
		c-0.9,0.9-1.9,1.7-2.9,2.4c-1.1,0.7-2.2,1.3-3.3,1.8c-0.2,0.1-0.5,0.2-0.7,0.3c-0.2,0.1-0.5,0.2-0.7,0.3c-0.2,0.1-0.5,0.2-0.7,0.2
		c-0.2,0.1-0.5,0.1-0.7,0.2c-0.2,0.1-0.5,0.1-0.8,0.2c-0.4,0.1-0.8,0.2-1.3,0.2c-0.2,0-0.5,0-0.7,0H706c-0.1,0-0.2,0-0.3,0
		c-0.1,0-0.2,0-0.4,0c-0.1,0-0.3,0-0.4,0c-0.1,0-0.3,0-0.4,0c-0.1,0-0.3,0-0.4,0c-0.1,0-0.3,0-0.4,0c-0.1,0-0.3,0-0.4,0
		c-0.1,0-0.3,0-0.4,0c-0.1,0-0.2,0-0.3,0c-0.1,0-0.2,0-0.3,0c-0.1,0-0.1,0-0.2,0c0,0-0.1,0-0.1,0c0,0,0,0,0,0h-30.4
		c-0.3,0-0.5,0.2-0.5,0.5v8.1c0,0.3,0.2,0.5,0.5,0.5h32.9c0.1,0,0.3,0,0.4,0h0c0.1,0,0.3,0,0.4,0c0,0,0,0,0.1,0c0.1,0,0.2,0,0.3,0
		c0,0,0.1,0,0.1,0c0.1,0,0.2,0,0.3,0c0,0,0,0,0.1,0c0.3,0,0.6,0,0.8-0.1c0,0,0,0,0.1,0c0.1,0,0.2,0,0.3,0c0,0,0.1,0,0.1,0
		c0.1,0,0.2,0,0.3,0c0,0,0.1,0,0.1,0c0.1,0,0.2,0,0.3,0c0,0,0.1,0,0.1,0c0.1,0,0.2,0,0.3,0c0,0,0.1,0,0.1,0c0.1,0,0.3,0,0.4-0.1
		c0,0,0.1,0,0.1,0c0.1,0,0.2,0,0.3,0c0.1,0,0.1,0,0.2,0c0.1,0,0.1,0,0.2,0c0.1,0,0.1,0,0.2,0c0.1,0,0.1,0,0.2,0c0.1,0,0.1,0,0.2,0
		c0.1,0,0.1,0,0.2,0c0.1,0,0.1,0,0.2,0l0.2,0c0.1,0,0.1,0,0.2,0c0,0,0.1,0,0.1,0c0.1,0,0.2,0,0.3-0.1c0.1,0,0.1,0,0.2,0
		c0.1,0,0.2,0,0.2-0.1c0.1,0,0.1,0,0.2,0c0.1,0,0.2-0.1,0.3-0.1c0.1,0,0.1,0,0.2,0c0.1,0,0.2-0.1,0.3-0.1c0.1,0,0.1,0,0.2,0
		c0.1,0,0.2-0.1,0.2-0.1c0.1,0,0.1,0,0.2-0.1c0.1,0,0.2-0.1,0.3-0.1c0,0,0.1,0,0.1,0c0.1,0,0.3-0.1,0.4-0.1c0,0,0.1,0,0.1,0
		c0.1,0,0.2-0.1,0.3-0.1c0,0,0.1,0,0.1-0.1c0.1,0,0.2-0.1,0.3-0.1c0,0,0.1,0,0.1,0c0.1-0.1,0.3-0.1,0.4-0.2c0,0,0.1,0,0.1,0
		c0.1,0,0.2-0.1,0.3-0.1c0,0,0.1,0,0.1-0.1c0.1,0,0.2-0.1,0.3-0.1c0,0,0,0,0.1,0c0.1-0.1,0.3-0.1,0.4-0.2c0,0,0,0,0.1,0
		c0.1,0,0.2-0.1,0.3-0.2c0,0,0.1,0,0.1,0c0.1-0.1,0.2-0.1,0.3-0.2c0,0,0,0,0,0c0.1-0.1,0.3-0.1,0.4-0.2c0,0,0,0,0,0
		c0.1-0.1,0.2-0.1,0.3-0.2c0,0,0,0,0.1,0c0.1-0.1,0.2-0.1,0.3-0.2c0,0,0,0,0,0c0.1-0.1,0.3-0.2,0.4-0.2c0,0,0,0,0,0
		c0.1-0.1,0.2-0.1,0.4-0.2c0,0,0,0,0.1,0c0.1-0.1,0.2-0.1,0.4-0.2c0,0,0,0,0,0c0.2-0.2,0.5-0.3,0.7-0.5c0,0,0,0,0,0
		c0.4-0.3,0.7-0.5,1.1-0.8c0,0,0,0,0,0c0.4-0.3,0.7-0.6,1-0.8c0,0,0,0,0,0c0.6-0.5,1.1-1,1.7-1.5c0.3-0.3,0.6-0.6,0.8-0.9
		c0.1-0.1,0.1-0.2,0.2-0.2c0.1-0.1,0.1-0.2,0.2-0.2c3.3-3.8,5.7-8.5,6.6-13.6c0,0,0,0,0,0c0-0.1,0-0.2,0.1-0.3c0,0,0,0,0,0
		c0-0.1,0-0.2,0-0.3c0,0,0,0,0,0c0-0.1,0-0.2,0-0.3c0,0,0,0,0-0.1c0-0.1,0-0.2,0-0.3c0,0,0,0,0-0.1c0-0.1,0-0.2,0-0.3
		c0,0,0-0.1,0-0.1c0-0.1,0-0.2,0-0.3c0,0,0-0.1,0-0.1c0-0.1,0-0.2,0-0.3c0,0,0-0.1,0-0.1c0-0.1,0-0.2,0-0.2c0,0,0-0.1,0-0.1
		c0-0.1,0-0.2,0-0.2c0,0,0-0.1,0-0.1c0-0.1,0-0.1,0-0.2c0,0,0-0.1,0-0.1c0-0.1,0-0.1,0-0.2c0-0.1,0-0.1,0-0.2c0-0.1,0-0.1,0-0.2
		c0-0.1,0-0.1,0-0.2c0-0.1,0-0.1,0-0.2c0-0.1,0-0.2,0-0.3c0,0,0-0.1,0-0.1c0-0.1,0-0.2,0-0.4C732.9-607.9,730-614.8,725.2-619.9z"/>
	<g>
		<path class="st9" d="M680-628.4v25.5c0,0.1-0.1,0.2-0.1,0.3l-8.1,8.1c-0.3,0.3-0.8,0.1-0.8-0.3v-33.6c0-0.3,0.2-0.5,0.5-0.5h8.1
			C679.8-628.9,680-628.7,680-628.4z"/>
	</g>
	<g>
		<path class="st9" d="M711.1-615.6l-8.8,7.3c-0.1,0.1-0.2,0.2-0.2,0.4v9.6c0,0.4-0.5,0.6-0.8,0.3l-9.9-9.9c-0.2-0.2-0.5-0.2-0.7,0
			l-19.7,19.7c-0.1,0.1-0.1,0.2-0.1,0.3v2.5c0,0.3,0.2,0.5,0.5,0.5h8.9c0.1,0,0.2-0.1,0.3-0.1l10.1-10.1c0.2-0.2,0.5-0.2,0.7,0
			l10.2,10.2h0.4h8.5c0.3,0,0.5-0.2,0.5-0.5v-2.8L711.1-615.6L711.1-615.6z"/>
	</g>
</g>
<image style="overflow:visible;" width="333" height="291" xlink:href="1FF8FDEF.jpg"  transform="matrix(0.5 0 0 0.5 944.9333 -781.0166)">
</image>
</svg>
