<?xml version="1.0" encoding="utf-8"?>
<!-- Generator: Adobe Illustrator 24.1.2, SVG Export Plug-In . SVG Version: 6.00 Build 0)  -->
<svg version="1.1" id="Layer_1" xmlns="http://www.w3.org/2000/svg" xmlns:xlink="http://www.w3.org/1999/xlink" x="0px" y="0px"
	 viewBox="0 0 201.1 82.1" style="enable-background:new 0 0 201.1 82.1;" xml:space="preserve">
<style type="text/css">
	.st0{filter:url(#Adobe_OpacityMaskFilter);}
	.st1{mask:url(#SVGID_1_);fill:url(#SVGID_2_);}
	.st2{filter:url(#Adobe_OpacityMaskFilter_1_);}
	.st3{mask:url(#SVGID_3_);fill:url(#SVGID_4_);}
	.st4{fill:#565655;}
	.st5{fill:url(#SVGID_5_);}
	.st6{fill:url(#SVGID_6_);}
	.st7{filter:url(#Adobe_OpacityMaskFilter_2_);}
	.st8{mask:url(#SVGID_7_);}
	.st9{fill:#FD4D1E;}
	.st10{filter:url(#Adobe_OpacityMaskFilter_3_);}
	.st11{mask:url(#SVGID_8_);}
	.st12{fill:url(#SVGID_9_);}
	.st13{fill:url(#SVGID_10_);}
	.st14{fill:url(#SVGID_11_);}
	.st15{fill:url(#SVGID_12_);}
	.st16{fill:url(#SVGID_13_);}
	.st17{fill:url(#SVGID_14_);}
	.st18{fill:url(#SVGID_15_);}
	.st19{fill:url(#SVGID_16_);}
	.st20{fill:url(#SVGID_17_);}
	.st21{fill:url(#SVGID_18_);}
	.st22{fill:url(#SVGID_19_);}
	.st23{fill:url(#SVGID_20_);}
	.st24{fill:#FFFFFF;}
	.st25{filter:url(#Adobe_OpacityMaskFilter_4_);}
	.st26{mask:url(#SVGID_21_);fill:#3A75E9;}
	.st27{fill:#52575B;}
	.st28{fill:#3A75E9;}
	.st29{filter:url(#Adobe_OpacityMaskFilter_5_);}
	.st30{mask:url(#SVGID_22_);}
	.st31{fill:#0C1133;}
</style>
<g>
	<g>
		<g>
			<path class="st4" d="M100,36l-2-5.1h-8.2l-2,5.1h-4.3l8.9-23.1h3l8.9,23.1H100z M91.3,26.8h5.2l-2.6-6.7L91.3,26.8z"/>
			<path class="st4" d="M106.5,26.9c0-2.5,0.9-4.6,2.6-6.4c1.8-1.8,3.9-2.6,6.4-2.6c2.5,0,4.6,0.9,6.4,2.6c1.8,1.8,2.6,3.9,2.6,6.4
				c0,2.5-0.9,4.6-2.6,6.4c-1.8,1.8-3.9,2.6-6.4,2.6c-1.9,0-3.5-0.5-5-1.5v8.6h-4V26.9z M119.1,23.4c-1-1-2.2-1.5-3.6-1.5
				c-1.4,0-2.6,0.5-3.6,1.5c-1,1-1.5,2.2-1.5,3.5c0,1.4,0.5,2.6,1.5,3.5c1,1,2.2,1.5,3.6,1.5c1.4,0,2.6-0.5,3.6-1.5
				c1-1,1.5-2.2,1.5-3.5C120.6,25.5,120.1,24.4,119.1,23.4z"/>
			<path class="st4" d="M128.9,20.5c1.8-1.8,3.9-2.6,6.4-2.6c2.5,0,4.6,0.9,6.4,2.6c1.8,1.8,2.6,3.9,2.6,6.4c0,0.4,0,0.8-0.1,1.2
				h-13.8c0.3,1.1,0.9,2,1.8,2.7c0.9,0.7,1.9,1.1,3.1,1.1c1.2,0,2.3-0.4,3.2-1.2h4.9c-0.7,1.6-1.8,2.8-3.3,3.8
				c-1.5,1-3.1,1.4-4.9,1.4c-2.5,0-4.6-0.9-6.4-2.6c-1.8-1.8-2.6-3.9-2.6-6.4C126.2,24.4,127.1,22.3,128.9,20.5z M130.5,25.1h9.4
				c-0.4-1-1-1.7-1.8-2.4c-0.9-0.6-1.8-0.9-2.9-0.9c-1.1,0-2,0.3-2.9,0.9C131.5,23.4,130.9,24.2,130.5,25.1z"/>
			<path class="st4" d="M158.3,17.9l-4.2,7.7l5.6,10.4h-4.6l-3.3-6.1l-3.3,6.1h-4.6l5.6-10.4l-4.2-7.7h4.6l1.9,3.5l1.9-3.5H158.3z"
				/>
			<path class="st4" d="M175.8,33.3c-1.8,1.8-3.9,2.6-6.4,2.6c-2.5,0-4.6-0.9-6.4-2.6c-1.8-1.8-2.6-3.9-2.6-6.4
				c0-2.5,0.9-4.6,2.6-6.4c1.8-1.8,3.9-2.6,6.4-2.6c2.5,0,4.6,0.9,6.4,2.6c1.8,1.8,2.6,3.9,2.6,6.4
				C178.4,29.4,177.5,31.5,175.8,33.3z M165.8,30.5c1,1,2.2,1.5,3.5,1.5c1.4,0,2.6-0.5,3.5-1.5c1-1,1.5-2.2,1.5-3.5
				c0-1.4-0.5-2.6-1.5-3.6c-1-1-2.2-1.5-3.5-1.5c-1.4,0-2.6,0.5-3.5,1.5c-1,1-1.5,2.2-1.5,3.6C164.4,28.3,164.8,29.5,165.8,30.5z"/>
			<path class="st4" d="M196.4,25.9V36h-4V25.9c0-1.1-0.4-2.1-1.2-2.8c-0.8-0.8-1.7-1.2-2.8-1.2c-1.1,0-2,0.4-2.8,1.2
				c-0.8,0.8-1.2,1.7-1.2,2.8V36h-4V25.9c0-2.2,0.8-4.1,2.4-5.7c1.6-1.6,3.5-2.4,5.7-2.4c2.2,0,4.1,0.8,5.7,2.4
				C195.6,21.8,196.4,23.7,196.4,25.9z"/>
		</g>
		<g>
			<path class="st4" d="M95,42.3c2.4,0,4.6,0.7,6.5,2c1.9,1.3,3.4,3.1,4.2,5.2h-4.5c-0.7-1-1.6-1.8-2.7-2.4
				c-1.1-0.6-2.3-0.9-3.5-0.9c-2.1,0-3.9,0.7-5.3,2.2c-1.5,1.5-2.2,3.2-2.2,5.3c0,2.1,0.7,3.8,2.2,5.3c1.5,1.5,3.2,2.2,5.3,2.2
				c1.2,0,2.4-0.3,3.4-0.8c1.1-0.5,1.9-1.3,2.7-2.3H95v-4h11.5c-0.1,3.1-1.3,5.7-3.5,7.9c-2.2,2.2-4.9,3.2-8,3.2
				c-3.2,0-5.9-1.1-8.2-3.4c-2.2-2.2-3.4-5-3.4-8.2c0-3.2,1.1-5.9,3.4-8.2C89.1,43.4,91.8,42.3,95,42.3z"/>
			<path class="st4" d="M108.6,56.3c0-2.5,0.9-4.6,2.6-6.4c1.8-1.8,3.9-2.6,6.4-2.6v4c-1.4,0-2.6,0.5-3.5,1.5c-1,1-1.5,2.1-1.5,3.5
				v9.1h-4V56.3z"/>
			<path class="st4" d="M133.7,62.7c-1.8,1.8-3.9,2.6-6.4,2.6c-2.5,0-4.6-0.9-6.4-2.6c-1.8-1.8-2.6-3.9-2.6-6.4
				c0-2.5,0.9-4.6,2.6-6.4c1.8-1.8,3.9-2.6,6.4-2.6c2.5,0,4.6,0.9,6.4,2.6c1.8,1.8,2.6,3.9,2.6,6.4C136.3,58.9,135.4,61,133.7,62.7z
				 M123.7,59.9c1,1,2.2,1.5,3.5,1.5c1.4,0,2.6-0.5,3.5-1.5c1-1,1.5-2.2,1.5-3.5c0-1.4-0.5-2.6-1.5-3.6c-1-1-2.2-1.5-3.5-1.5
				c-1.4,0-2.6,0.5-3.5,1.5c-1,1-1.5,2.2-1.5,3.6C122.3,57.7,122.8,58.9,123.7,59.9z"/>
			<path class="st4" d="M138.3,57.4v-10h4v10c0,1.1,0.4,2,1.2,2.8c0.8,0.8,1.7,1.2,2.8,1.2c1.1,0,2.1-0.4,2.8-1.2
				c0.8-0.8,1.2-1.7,1.2-2.8v-10h4v10c0,2.2-0.8,4.1-2.4,5.7c-1.6,1.6-3.5,2.4-5.7,2.4c-2.2,0-4.1-0.8-5.7-2.4
				C139.1,61.5,138.3,59.6,138.3,57.4z"/>
			<path class="st4" d="M156.4,56.4c0-2.5,0.9-4.6,2.6-6.4c1.8-1.8,3.9-2.6,6.4-2.6c2.5,0,4.6,0.9,6.4,2.6c1.8,1.8,2.6,3.9,2.6,6.4
				c0,2.5-0.9,4.6-2.6,6.4c-1.8,1.8-3.9,2.6-6.4,2.6c-1.9,0-3.5-0.5-5-1.5v8.6h-4V56.4z M169,52.8c-1-1-2.2-1.5-3.6-1.5
				c-1.4,0-2.6,0.5-3.6,1.5c-1,1-1.5,2.2-1.5,3.5c0,1.4,0.5,2.6,1.5,3.5c1,1,2.2,1.5,3.6,1.5c1.4,0,2.6-0.5,3.6-1.5
				c1-1,1.5-2.2,1.5-3.5C170.5,55,170,53.8,169,52.8z"/>
		</g>
	</g>
</g>
<defs>
	<filter id="Adobe_OpacityMaskFilter" filterUnits="userSpaceOnUse" x="2.2" y="3" width="76.3" height="75.4">
		<feFlood  style="flood-color:white;flood-opacity:1" result="back"/>
		<feBlend  in="SourceGraphic" in2="back" mode="normal"/>
	</filter>
</defs>
<mask maskUnits="userSpaceOnUse" x="2.2" y="3" width="76.3" height="75.4" id="SVGID_1_">
	<g class="st0">
		<g>
			<g>
				<path d="M43.3,26.2c1-1.7,3.3-1.7,4.3,0v0L54.4,38l4.8,8.4l6.2,10.7L50.1,19.9c-0.4-1-1.1-1.8-2.1-2.3c-0.6-0.3-1.2-0.4-1.8-0.4
					h-3.3h-4.8c-1.5,0-2.9,0.8-3.6,2.1L19.7,45c4.7-3.5,10.3-5.7,16.3-6.2L43.3,26.2z"/>
				<path d="M51.6,44.7c-0.2-0.1-0.4-0.2-0.5-0.4L47,37.1c-0.6-1.1-2.2-1.1-2.8,0l-2.4,4.2c-0.2,0.3-0.5,0.4-0.8,0.4
					c-0.8-0.1-1.7-0.1-2.5-0.1c-10,0-18.8,5.1-23.8,12.9c-0.5,0.8-0.2,1.9,0.7,2.3l9.8,3.8c0.7,0.3,1.6,0,1.9-0.7
					c3.3-6.9,10.4-11.6,18.7-11.6c10,0,18.3,6.9,20.2,16.1C64.6,55.7,59.1,48.5,51.6,44.7z"/>
			</g>
		</g>
	</g>
</mask>
<g style="mask:url(#SVGID_1_);">
	<linearGradient id="SVGID_2_" gradientUnits="userSpaceOnUse" x1="2.1846" y1="40.6982" x2="78.5119" y2="40.6982">
		<stop  offset="0" style="stop-color:#1C75BC"/>
		<stop  offset="1" style="stop-color:#22D3EE"/>
	</linearGradient>
	<ellipse style="fill:url(#SVGID_2_);" cx="40.3" cy="40.7" rx="38.2" ry="37.7"/>
</g>
</svg>
