<?xml version="1.0" encoding="utf-8"?>
<!-- Generator: Adobe Illustrator 24.3.0, SVG Export Plug-In . SVG Version: 6.00 Build 0)  -->
<svg version="1.1" id="Layer_1" xmlns="http://www.w3.org/2000/svg" xmlns:xlink="http://www.w3.org/1999/xlink" x="0px" y="0px"
	 viewBox="0 0 201.1 82.1" style="enable-background:new 0 0 201.1 82.1;" xml:space="preserve">
<style type="text/css">
	.st0{filter:url(#Adobe_OpacityMaskFilter);}
	.st1{mask:url(#SVGID_1_);fill:url(#SVGID_2_);}
	.st2{filter:url(#Adobe_OpacityMaskFilter_1_);}
	.st3{mask:url(#SVGID_3_);fill:url(#SVGID_4_);}
	.st4{fill:#FFFFFF;}
	.st5{fill:url(#SVGID_5_);}
	.st6{fill:url(#SVGID_6_);}
	.st7{filter:url(#Adobe_OpacityMaskFilter_2_);}
	.st8{mask:url(#SVGID_7_);}
	.st9{fill:#FD4D1E;}
	.st10{fill:url(#SVGID_8_);}
	.st11{fill:url(#SVGID_9_);}
	.st12{fill:url(#SVGID_10_);}
	.st13{fill:url(#SVGID_11_);}
	.st14{fill:url(#SVGID_12_);}
	.st15{fill:url(#SVGID_13_);}
	.st16{fill:url(#SVGID_14_);}
	.st17{fill:url(#SVGID_15_);}
	.st18{fill:url(#SVGID_16_);}
	.st19{fill:url(#SVGID_17_);}
	.st20{fill:url(#SVGID_18_);}
	.st21{fill:url(#SVGID_19_);}
	.st22{filter:url(#Adobe_OpacityMaskFilter_3_);}
	.st23{mask:url(#SVGID_20_);fill:#3A75E9;}
	.st24{fill:#52575B;}
	.st25{fill:#3A75E9;}
	.st26{filter:url(#Adobe_OpacityMaskFilter_4_);}
	.st27{mask:url(#SVGID_21_);}
	.st28{fill:#0C1133;}
</style>
<g>
	<g>
		<g>
			<path class="st4" d="M103,36l-2-5.1h-8.2l-2,5.1h-4.3l8.9-23.1h3l8.9,23.1H103z M94.3,26.8h5.2l-2.6-6.7L94.3,26.8z"/>
			<path class="st4" d="M109.5,26.9c0-2.5,0.9-4.6,2.6-6.4c1.8-1.8,3.9-2.6,6.4-2.6c2.5,0,4.6,0.9,6.4,2.6c1.8,1.8,2.6,3.9,2.6,6.4
				c0,2.5-0.9,4.6-2.6,6.4c-1.8,1.8-3.9,2.6-6.4,2.6c-1.9,0-3.5-0.5-5-1.5v8.6h-4V26.9z M122.1,23.4c-1-1-2.2-1.5-3.6-1.5
				c-1.4,0-2.6,0.5-3.6,1.5c-1,1-1.5,2.2-1.5,3.5c0,1.4,0.5,2.6,1.5,3.5c1,1,2.2,1.5,3.6,1.5c1.4,0,2.6-0.5,3.6-1.5
				c1-1,1.5-2.2,1.5-3.5C123.6,25.5,123.1,24.4,122.1,23.4z"/>
			<path class="st4" d="M131.9,20.5c1.8-1.8,3.9-2.6,6.4-2.6c2.5,0,4.6,0.9,6.4,2.6c1.8,1.8,2.6,3.9,2.6,6.4c0,0.4,0,0.8-0.1,1.2
				h-13.8c0.3,1.1,0.9,2,1.8,2.7c0.9,0.7,1.9,1.1,3.1,1.1c1.2,0,2.3-0.4,3.2-1.2h4.9c-0.7,1.6-1.8,2.8-3.3,3.8
				c-1.5,1-3.1,1.4-4.9,1.4c-2.5,0-4.6-0.9-6.4-2.6c-1.8-1.8-2.6-3.9-2.6-6.4C129.2,24.4,130.1,22.3,131.9,20.5z M133.5,25.1h9.4
				c-0.4-1-1-1.7-1.8-2.4c-0.9-0.6-1.8-0.9-2.9-0.9c-1.1,0-2,0.3-2.9,0.9C134.5,23.4,133.9,24.2,133.5,25.1z"/>
			<path class="st4" d="M161.3,17.9l-4.2,7.7l5.6,10.4h-4.6l-3.3-6.1l-3.3,6.1h-4.6l5.6-10.4l-4.2-7.7h4.6l1.9,3.5l1.9-3.5H161.3z"
				/>
			<path class="st4" d="M178.8,33.3c-1.8,1.8-3.9,2.6-6.4,2.6c-2.5,0-4.6-0.9-6.4-2.6c-1.8-1.8-2.6-3.9-2.6-6.4
				c0-2.5,0.9-4.6,2.6-6.4c1.8-1.8,3.9-2.6,6.4-2.6c2.5,0,4.6,0.9,6.4,2.6c1.8,1.8,2.6,3.9,2.6,6.4
				C181.4,29.4,180.5,31.5,178.8,33.3z M168.8,30.5c1,1,2.2,1.5,3.5,1.5c1.4,0,2.6-0.5,3.5-1.5c1-1,1.5-2.2,1.5-3.5
				c0-1.4-0.5-2.6-1.5-3.6c-1-1-2.2-1.5-3.5-1.5c-1.4,0-2.6,0.5-3.5,1.5c-1,1-1.5,2.2-1.5,3.6C167.4,28.3,167.8,29.5,168.8,30.5z"/>
			<path class="st4" d="M199.4,25.9V36h-4V25.9c0-1.1-0.4-2.1-1.2-2.8c-0.8-0.8-1.7-1.2-2.8-1.2c-1.1,0-2,0.4-2.8,1.2
				c-0.8,0.8-1.2,1.7-1.2,2.8V36h-4V25.9c0-2.2,0.8-4.1,2.4-5.7c1.6-1.6,3.5-2.4,5.7-2.4c2.2,0,4.1,0.8,5.7,2.4
				C198.6,21.8,199.4,23.7,199.4,25.9z"/>
		</g>
		<g>
			<path class="st4" d="M98,42.3c2.4,0,4.6,0.7,6.5,2c1.9,1.3,3.4,3.1,4.2,5.2h-4.5c-0.7-1-1.6-1.8-2.7-2.4
				c-1.1-0.6-2.3-0.9-3.5-0.9c-2.1,0-3.9,0.7-5.3,2.2c-1.5,1.5-2.2,3.2-2.2,5.3c0,2.1,0.7,3.8,2.2,5.3c1.5,1.5,3.2,2.2,5.3,2.2
				c1.2,0,2.4-0.3,3.4-0.8c1.1-0.5,1.9-1.3,2.7-2.3H98v-4h11.5c-0.1,3.1-1.3,5.7-3.5,7.9c-2.2,2.2-4.9,3.2-8,3.2
				c-3.2,0-5.9-1.1-8.2-3.4c-2.2-2.2-3.4-5-3.4-8.2c0-3.2,1.1-5.9,3.4-8.2C92.1,43.4,94.8,42.3,98,42.3z"/>
			<path class="st4" d="M111.6,56.3c0-2.5,0.9-4.6,2.6-6.4c1.8-1.8,3.9-2.6,6.4-2.6v4c-1.4,0-2.6,0.5-3.5,1.5c-1,1-1.5,2.1-1.5,3.5
				v9.1h-4V56.3z"/>
			<path class="st4" d="M136.7,62.7c-1.8,1.8-3.9,2.6-6.4,2.6c-2.5,0-4.6-0.9-6.4-2.6c-1.8-1.8-2.6-3.9-2.6-6.4
				c0-2.5,0.9-4.6,2.6-6.4c1.8-1.8,3.9-2.6,6.4-2.6c2.5,0,4.6,0.9,6.4,2.6c1.8,1.8,2.6,3.9,2.6,6.4C139.3,58.9,138.4,61,136.7,62.7z
				 M126.7,59.9c1,1,2.2,1.5,3.5,1.5c1.4,0,2.6-0.5,3.5-1.5c1-1,1.5-2.2,1.5-3.5c0-1.4-0.5-2.6-1.5-3.6c-1-1-2.2-1.5-3.5-1.5
				c-1.4,0-2.6,0.5-3.5,1.5c-1,1-1.5,2.2-1.5,3.6C125.3,57.7,125.8,58.9,126.7,59.9z"/>
			<path class="st4" d="M141.3,57.4v-10h4v10c0,1.1,0.4,2,1.2,2.8c0.8,0.8,1.7,1.2,2.8,1.2c1.1,0,2.1-0.4,2.8-1.2
				c0.8-0.8,1.2-1.7,1.2-2.8v-10h4v10c0,2.2-0.8,4.1-2.4,5.7c-1.6,1.6-3.5,2.4-5.7,2.4c-2.2,0-4.1-0.8-5.7-2.4
				C142.1,61.5,141.3,59.6,141.3,57.4z"/>
			<path class="st4" d="M159.4,56.4c0-2.5,0.9-4.6,2.6-6.4c1.8-1.8,3.9-2.6,6.4-2.6c2.5,0,4.6,0.9,6.4,2.6c1.8,1.8,2.6,3.9,2.6,6.4
				c0,2.5-0.9,4.6-2.6,6.4c-1.8,1.8-3.9,2.6-6.4,2.6c-1.9,0-3.5-0.5-5-1.5v8.6h-4V56.4z M172,52.8c-1-1-2.2-1.5-3.6-1.5
				c-1.4,0-2.6,0.5-3.6,1.5c-1,1-1.5,2.2-1.5,3.5c0,1.4,0.5,2.6,1.5,3.5c1,1,2.2,1.5,3.6,1.5c1.4,0,2.6-0.5,3.6-1.5
				c1-1,1.5-2.2,1.5-3.5C173.5,55,173,53.8,172,52.8z"/>
		</g>
	</g>
</g>
<g>
	<linearGradient id="SVGID_1_" gradientUnits="userSpaceOnUse" x1="1.1846" y1="40.6982" x2="77.5119" y2="40.6982">
		<stop  offset="0" style="stop-color:#CD1A54"/>
		<stop  offset="1" style="stop-color:#B91C1C"/>
	</linearGradient>
	<ellipse style="fill:url(#SVGID_1_);" cx="39.3" cy="40.7" rx="38.2" ry="37.7"/>
</g>
<g>
	<g>
		<path class="st4" d="M42.3,26.2c1-1.7,3.3-1.7,4.3,0v0L53.4,38l4.8,8.4l6.2,10.7L49.1,19.9c-0.4-1-1.1-1.8-2.1-2.3
			c-0.6-0.3-1.2-0.4-1.8-0.4h-3.3h-4.8c-1.5,0-2.9,0.8-3.6,2.1L18.7,45c4.7-3.5,10.3-5.7,16.3-6.2L42.3,26.2z"/>
		<path class="st4" d="M50.6,44.7c-0.2-0.1-0.4-0.2-0.5-0.4L46,37.1c-0.6-1.1-2.2-1.1-2.8,0l-2.4,4.2c-0.2,0.3-0.5,0.4-0.8,0.4
			c-0.8-0.1-1.7-0.1-2.5-0.1c-10,0-18.8,5.1-23.8,12.9c-0.5,0.8-0.2,1.9,0.7,2.3l9.8,3.8c0.7,0.3,1.6,0,1.9-0.7
			c3.3-6.9,10.4-11.6,18.7-11.6c10,0,18.3,6.9,20.2,16.1C63.6,55.7,58.1,48.5,50.6,44.7z"/>
	</g>
</g>
</svg>
