<?xml version="1.0" encoding="utf-8"?>
<!-- Generator: Adobe Illustrator 24.1.2, SVG Export Plug-In . SVG Version: 6.00 Build 0)  -->
<svg version="1.1" xmlns="http://www.w3.org/2000/svg" xmlns:xlink="http://www.w3.org/1999/xlink" x="0px" y="0px"
	 viewBox="0 0 2200 2200" enable-background="new 0 0 2200 2200" xml:space="preserve">
<g id="background">
</g>
<g id="Objects">
	<g>
		<path fill="#75BF45" d="M2089.91,951.02c-25.16-108.47-141.94-177.03-253.29-178.48c-111.33-1.44-216.49,50.09-310.18,110.28
			c-98.8,63.45-190.05,140.3-259.56,234.95c-38.36,52.25-81.78,108.87-116.61,242.03c-10.3,34.25-19.49,68.55-27.67,103.44
			c5.44-154.33,30.84-267.37,42.79-341.36c38.6-239,233.82-177.5,393.83-554.95c43.46-102.53,76.51-214.87,56.28-324.35
			c-20.24-109.5-107.54-213.03-218.7-219.51c-87.55-5.07-169,49.27-225,116.74c-127.08,153.12-147.06,368.64-124.96,566.39
			c17.84,159.66,85.05,230.14,63.24,439.86c-11.4,109.63-20.43,183.26-24.72,283.89c-12.12-59.54-25.26-111.21-35.57-144.64
			c-34.85-133.41-78.31-190.07-116.7-242.36C863.6,948.31,772.35,871.46,673.55,808c-93.69-60.17-198.84-111.7-310.18-110.27
			c-111.34,1.44-228.13,70-253.29,178.46c-19.8,85.43,19.99,174.9,77.03,241.49c129.45,151.11,338.32,210.88,537.13,218.85
			c14.67,0.59,30.33,0.67,46.61,0.3c153.86-3.55,285.63,110.02,302.9,262.96c4.47,39.61,7.28,78.79,7.52,115.12
			c-13.35,128.28-18.54,273.89-15.82,443.38c0.17,10.53,8.76,18.95,19.25,18.95c0.11,0,0.21,0,0.31,0
			c10.61-0.13,19.12-8.8,18.95-19.41c-3.01-187.75,3.72-345.71,20.59-482.9c0.13-1.08,0.27-2.17,0.4-3.25
			c18.87-151.65,149.91-263.85,302.68-260.06c16.81,0.42,32.99,0.34,48.1-0.26c198.81-7.97,407.68-67.74,537.13-218.84
			C2069.92,1125.9,2109.71,1036.45,2089.91,951.02z"/>
	</g>
</g>
</svg>
