<?xml version="1.0" encoding="utf-8"?>
<!-- Generator: Adobe Illustrator 24.1.2, SVG Export Plug-In . SVG Version: 6.00 Build 0)  -->
<svg version="1.1" id="Layer_1" xmlns="http://www.w3.org/2000/svg" xmlns:xlink="http://www.w3.org/1999/xlink" x="0px" y="0px"
	 viewBox="0 0 2599 1733" enable-background="new 0 0 2599 1733" xml:space="preserve">
<g>
	<g>
		<defs>
			<rect id="SVGID_1_" x="0.46" y="0.47" width="2598.08" height="1732.05"/>
		</defs>
		<use xlink:href="#SVGID_1_"  overflow="visible" fill="#FDFDFD"/>
		<clipPath id="SVGID_2_">
			<use xlink:href="#SVGID_1_"  overflow="visible"/>
		</clipPath>
		<defs>
			<filter id="Adobe_OpacityMaskFilter" filterUnits="userSpaceOnUse" x="1425.77" y="-109.39" width="1228.16" height="880.93">
				<feColorMatrix  type="matrix" values="1 0 0 0 0  0 1 0 0 0  0 0 1 0 0  0 0 0 1 0"/>
			</filter>
		</defs>
		<mask maskUnits="userSpaceOnUse" x="1425.77" y="-109.39" width="1228.16" height="880.93" id="SVGID_3_">
			<g filter="url(#Adobe_OpacityMaskFilter)">
				
					<radialGradient id="SVGID_4_" cx="-6912.8555" cy="332.6015" r="899.7319" gradientTransform="matrix(-0.6161 -0.7876 0.7876 -0.6161 -2661.0693 -4776.6045)" gradientUnits="userSpaceOnUse">
					<stop  offset="0" style="stop-color:#FFFFFF"/>
					<stop  offset="0.0978" style="stop-color:#E4E4E4"/>
					<stop  offset="0.5488" style="stop-color:#6B6B6B"/>
					<stop  offset="0.8583" style="stop-color:#1E1E1E"/>
					<stop  offset="1" style="stop-color:#000000"/>
				</radialGradient>
				<polygon clip-path="url(#SVGID_2_)" fill="url(#SVGID_4_)" points="2235.56,-813.91 3166.54,376.23 1976.4,1307.21 
					1045.42,117.06 				"/>
			</g>
		</mask>
		<g clip-path="url(#SVGID_2_)" mask="url(#SVGID_3_)">
			<g>
				
					<linearGradient id="SVGID_5_" gradientUnits="userSpaceOnUse" x1="-6765.147" y1="1121.9327" x2="-6952.0034" y2="1121.9327" gradientTransform="matrix(-0.6161 -0.7876 0.7876 -0.6161 -2661.0693 -4776.6045)">
					<stop  offset="0.0792" style="stop-color:#DCF4B1"/>
					<stop  offset="0.2627" style="stop-color:#D9F2AE"/>
					<stop  offset="0.4154" style="stop-color:#CEEBA6"/>
					<stop  offset="0.5565" style="stop-color:#BDE097"/>
					<stop  offset="0.651" style="stop-color:#ADD68A"/>
					<stop  offset="1" style="stop-color:#A3BF8F"/>
				</linearGradient>
				<path fill="url(#SVGID_5_)" d="M2632.69-91.77c0,0-38.27,19.44-70.84,30.23c-15.9,5.77-31.54,29.54-54.19,49.31
					c-22.36,19.64-51.04,35-84.54,23.78c-35.23-11.8-66.82-25.43-94.35-35.33c-27.42-10.1-50.74-16.16-66.24-15.67
					c0,0,16.17-7.73,40.44-16.1c24.23-8.53,56.46-17.58,86.75-22.89c49.34-8.51,82.15-5.23,107.38-0.72
					c24.95,4.41,42.1,10.73,53.44,8.35c11.35-2.2,31.76-7.45,48.61-14.01c8.6-2.87,16.14-6.36,21.71-8.75
					c5.57-2.42,9.05-3.93,9.05-3.93L2632.69-91.77z"/>
			</g>
			<g>
				
					<linearGradient id="SVGID_6_" gradientUnits="userSpaceOnUse" x1="-7311.5493" y1="1098.5999" x2="-6965.3555" y2="1098.5999" gradientTransform="matrix(-0.6161 -0.7876 0.7876 -0.6161 -2661.0693 -4776.6045)">
					<stop  offset="0.0792" style="stop-color:#DCF4B1"/>
					<stop  offset="0.2627" style="stop-color:#D9F2AE"/>
					<stop  offset="0.4154" style="stop-color:#CEEBA6"/>
					<stop  offset="0.5565" style="stop-color:#BDE097"/>
					<stop  offset="0.651" style="stop-color:#ADD68A"/>
					<stop  offset="1" style="stop-color:#A3BF8F"/>
				</linearGradient>
				<path fill="url(#SVGID_6_)" d="M2598.9-40.4c0,0-2.03,2.54-5.53,6.93c-3.26,4.51-8.78,10.23-13.43,18.06
					c-9.37,15.63-19.17,37.05-22.48,57.11c-5,20.15,12.58,47.1,27.99,71.4c16.12,25.21,31.37,49.34,25.28,84.9
					c-12.39,75.71-13.7,151.85-0.88,184.56c0,0-13.51-14.98-30.55-39.1c-16.93-24.1-37.05-57.8-50.39-93.45
					c-22.06-57.98-19.49-105.05-11.23-136.95c8.87-32.47,21.88-50.04,25.64-64.1c4.07-14.08,11.85-40.12,25-59.7
					c5.6-10.31,12.58-18.5,17.78-24.38c5.07-5.97,8.24-9.69,8.24-9.69L2598.9-40.4z"/>
			</g>
			<g>
				
					<linearGradient id="SVGID_7_" gradientUnits="userSpaceOnUse" x1="-6696.1626" y1="936.7194" x2="-6989.5" y2="936.7194" gradientTransform="matrix(-0.6161 -0.7876 0.7876 -0.6161 -2661.0693 -4776.6045)">
					<stop  offset="0.0792" style="stop-color:#DCF4B1"/>
					<stop  offset="0.2627" style="stop-color:#D9F2AE"/>
					<stop  offset="0.4154" style="stop-color:#CEEBA6"/>
					<stop  offset="0.5565" style="stop-color:#BDE097"/>
					<stop  offset="0.651" style="stop-color:#ADD68A"/>
					<stop  offset="1" style="stop-color:#A3BF8F"/>
				</linearGradient>
				<path fill="url(#SVGID_7_)" d="M2500.19,59.48c0,0-2.71,1.25-7.37,3.4c-4.51,2.42-11.45,4.69-19.46,7.6
					c-16.31,5.18-38.33,9.19-58.11,11.34c-19.47,2.29-43.99,21.5-74.87,34.79c-30.62,13.43-66.45,20.58-100.76,1.74
					c-36.09-19.58-72.2-39.92-98.89-59.49c-27.25-19.33-44.68-37.28-56.78-46.18c0,0,16.91,4.52,42.58,6.63
					c25.62,2.5,60.17,2.01,95.6,3.53c59.66,2.99,97.09,15.82,124.49,26.33c27.31,10.78,44.86,20.78,58.35,21.24
					c13.37,0.38,37.74-0.68,57.57-5.14c20.04-4.06,34.79-11.45,34.79-11.45L2500.19,59.48z"/>
			</g>
			<g>
				
					<linearGradient id="SVGID_8_" gradientUnits="userSpaceOnUse" x1="-7244.437" y1="875.9143" x2="-6986.5034" y2="875.9143" gradientTransform="matrix(-0.6161 -0.7876 0.7876 -0.6161 -2661.0693 -4776.6045)">
					<stop  offset="0.0792" style="stop-color:#DCF4B1"/>
					<stop  offset="0.2627" style="stop-color:#D9F2AE"/>
					<stop  offset="0.4154" style="stop-color:#CEEBA6"/>
					<stop  offset="0.5565" style="stop-color:#BDE097"/>
					<stop  offset="0.651" style="stop-color:#ADD68A"/>
					<stop  offset="1" style="stop-color:#A3BF8F"/>
				</linearGradient>
				<path fill="url(#SVGID_8_)" d="M2448.92,102.22c0,0-11.02,42.69-16.34,77.43c-6.53,36.71,66.94,89.38,31.81,151.87
					c-36.62,64.58-77.58,116.8-84.91,146.04c0,0-10.85-68.75-9.81-130.34c0.92-50.13,11-83.63,22.2-108.84
					c11.11-25.38,23.94-40.78,27.23-52.5c6.23-24.38,23.68-85.29,23.68-85.29L2448.92,102.22z"/>
			</g>
			<g>
				
					<linearGradient id="SVGID_9_" gradientUnits="userSpaceOnUse" x1="-6724.4849" y1="779.5768" x2="-6999.9561" y2="779.5768" gradientTransform="matrix(-0.6161 -0.7876 0.7876 -0.6161 -2661.0693 -4776.6045)">
					<stop  offset="0.0792" style="stop-color:#DCF4B1"/>
					<stop  offset="0.2627" style="stop-color:#D9F2AE"/>
					<stop  offset="0.4154" style="stop-color:#CEEBA6"/>
					<stop  offset="0.5565" style="stop-color:#BDE097"/>
					<stop  offset="0.651" style="stop-color:#ADD68A"/>
					<stop  offset="1" style="stop-color:#A3BF8F"/>
				</linearGradient>
				<path fill="url(#SVGID_9_)" d="M2374.09,171.4c0,0-2.31,1.16-6.31,3.16c-3.79,2.3-9.99,4.21-17.08,6.71
					c-14.5,4.48-34.54,6.9-52.42,7.88c-17.6,1.09-40.96,18.87-69.9,30.53c-28.64,11.81-61.95,17.2-91.27-3.17
					c-31.61-21.11-60.53-43.43-85.55-60.44c-25.14-17.13-48.1-28.81-64.89-31.33c0,0,19.04-4.38,46.68-6.2
					c27.63-2.03,63.31-1.29,95.19,2.08c54.04,5.77,86.39,20.26,110.3,32.13c23.71,12.1,38.81,23.17,50.87,24.35
					c11.93,1.18,33.84,1.69,51.39-1.58c8.85-1.43,16.38-3.9,21.63-5.91c5.06-2.3,8.22-3.73,8.22-3.73L2374.09,171.4z"/>
			</g>
			<g>
				
					<linearGradient id="SVGID_10_" gradientUnits="userSpaceOnUse" x1="-7256.124" y1="678.0602" x2="-6988.2646" y2="678.0602" gradientTransform="matrix(-0.6161 -0.7876 0.7876 -0.6161 -2661.0693 -4776.6045)">
					<stop  offset="0.0792" style="stop-color:#DCF4B1"/>
					<stop  offset="0.2627" style="stop-color:#D9F2AE"/>
					<stop  offset="0.4154" style="stop-color:#CEEBA6"/>
					<stop  offset="0.5565" style="stop-color:#BDE097"/>
					<stop  offset="0.651" style="stop-color:#ADD68A"/>
					<stop  offset="1" style="stop-color:#A3BF8F"/>
				</linearGradient>
				<path fill="url(#SVGID_10_)" d="M2322.4,205.04c0,0-2.55,2.17-6.93,5.91c-4.11,3.95-10.97,8.5-16.96,15.68
					c-12.68,13.68-27.18,32.79-35.93,51.64c-10,18.56-2.05,49.76,4.31,79.4c6.41,30.39,12,60.01-6.25,92.19
					c-38.76,68.08-63.71,142.4-57.46,180.45c0,0-2.37-5.14-6.14-13.28c-4.12-8.5-8.64-20.78-13.66-35.73
					c-9.48-29.81-17.54-70.54-17.61-110.12c-0.31-64.56,18.78-108.01,37.09-135.73c18.78-28.03,36.61-41.1,43.99-53.86
					c7.93-12.6,22.27-35.75,39.1-52.67c4.13-4.27,8.09-8.35,11.69-12.08c4.09-3.31,7.79-6.29,10.9-8.81
					c6.26-5.02,10.16-8.15,10.16-8.15L2322.4,205.04z"/>
			</g>
			<g>
				
					<linearGradient id="SVGID_11_" gradientUnits="userSpaceOnUse" x1="-6686.4702" y1="580.5833" x2="-6990.8462" y2="580.5833" gradientTransform="matrix(-0.6161 -0.7876 0.7876 -0.6161 -2661.0693 -4776.6045)">
					<stop  offset="0.0792" style="stop-color:#DCF4B1"/>
					<stop  offset="0.2627" style="stop-color:#D9F2AE"/>
					<stop  offset="0.4154" style="stop-color:#CEEBA6"/>
					<stop  offset="0.5565" style="stop-color:#BDE097"/>
					<stop  offset="0.651" style="stop-color:#ADD68A"/>
					<stop  offset="1" style="stop-color:#A3BF8F"/>
				</linearGradient>
				<path fill="url(#SVGID_11_)" d="M2215.48,283.9c0,0-11.17,5.78-27.82,11.89c-16.64,6.11-38.84,12.06-58.82,16.05
					c-19.72,4.06-42.7,25.6-73.97,40.86c-30.63,15.31-70.33,23.99-108.53,1.28c-38.7-23.41-70.69-51.46-93.5-76.18
					c-23.2-24.77-38.17-46.05-50.41-57.22c0,0,17.67,7.47,43.63,15.26c25.92,8.02,60.21,15.4,92.89,21.16
					c53.89,9.78,89.33,18.68,117.82,27.98c27.9,9,46.8,17.05,60.58,16.45c13.68-0.88,38.47-4.3,58.91-10.15
					c20.57-5.55,36.47-13.12,36.47-13.12L2215.48,283.9z"/>
			</g>
			<g>
				
					<linearGradient id="SVGID_12_" gradientUnits="userSpaceOnUse" x1="-7245.8066" y1="479.1922" x2="-6974.5449" y2="479.1922" gradientTransform="matrix(-0.6161 -0.7876 0.7876 -0.6161 -2661.0693 -4776.6045)">
					<stop  offset="0.0792" style="stop-color:#DCF4B1"/>
					<stop  offset="0.2627" style="stop-color:#D9F2AE"/>
					<stop  offset="0.4154" style="stop-color:#CEEBA6"/>
					<stop  offset="0.5565" style="stop-color:#BDE097"/>
					<stop  offset="0.651" style="stop-color:#ADD68A"/>
					<stop  offset="1" style="stop-color:#A3BF8F"/>
				</linearGradient>
				<path fill="url(#SVGID_12_)" d="M2118.22,346.74c0,0-5.15,9.66-11.03,23.57c-5.68,13.99-11.89,32.29-15.16,48.89
					c-3.92,16.62,10.95,41.01,22.73,64.93c12.18,24.5,21.76,48.34,7.43,76.12c-15.04,29.53-28.28,59.62-36.27,86.92
					c-8.31,27.24-10.07,51.55-6.69,66.99c0,0-2.63-3.98-6.77-10.26c-4.49-6.58-9.76-16.21-15.69-28.07
					c-11.41-23.66-22.55-56.64-26.6-89.1c-6.86-52.98,5.56-89.58,17.78-113.85c12.97-24.48,26.46-37.33,30.26-48.67
					c3.94-11.36,10.7-32.1,18.73-49.33c3.71-8.71,7.67-16.52,10.85-22.11c3.03-5.65,4.92-9.17,4.92-9.17L2118.22,346.74z"/>
			</g>
			<g>
				
					<linearGradient id="SVGID_13_" gradientUnits="userSpaceOnUse" x1="-6722.396" y1="393.4857" x2="-6959.5254" y2="393.4857" gradientTransform="matrix(-0.6161 -0.7876 0.7876 -0.6161 -2661.0693 -4776.6045)">
					<stop  offset="0.0792" style="stop-color:#DCF4B1"/>
					<stop  offset="0.2627" style="stop-color:#D9F2AE"/>
					<stop  offset="0.4154" style="stop-color:#CEEBA6"/>
					<stop  offset="0.5565" style="stop-color:#BDE097"/>
					<stop  offset="0.651" style="stop-color:#ADD68A"/>
					<stop  offset="1" style="stop-color:#A3BF8F"/>
				</linearGradient>
				<path fill="url(#SVGID_13_)" d="M2008.62,405.96c0,0-8.67,0.39-20.92,0.04c-12.23-0.25-28.02-1.3-42.06-2.36
					c-26.88-1.54-84.72,62.12-127.58,23.36c-11.68-10.27-21.08-19.89-32.71-29.09c-11.22-9.27-22.04-18.2-31.32-26.6
					c-18.92-16.72-30.49-31.08-38.59-37.06c0,0,12.06,0.81,29.97-0.25c18.28-0.69,41.47-3.99,70.28-2.01
					c44.73,4.44,69.29,18.59,87.5,31.35c17.83,12.86,28.24,25.01,37.56,27.4c9.27,2.5,26.3,5.61,40.95,7.17
					c14.66,1.63,26.87,1.7,26.87,1.7L2008.62,405.96z"/>
			</g>
			<g>
				
					<linearGradient id="SVGID_14_" gradientUnits="userSpaceOnUse" x1="-7107.7842" y1="263.1997" x2="-6948.1919" y2="263.1997" gradientTransform="matrix(-0.6161 -0.7876 0.7876 -0.6161 -2661.0693 -4776.6045)">
					<stop  offset="0.0792" style="stop-color:#DCF4B1"/>
					<stop  offset="0.2627" style="stop-color:#D9F2AE"/>
					<stop  offset="0.4154" style="stop-color:#CEEBA6"/>
					<stop  offset="0.5565" style="stop-color:#BDE097"/>
					<stop  offset="0.651" style="stop-color:#ADD68A"/>
					<stop  offset="1" style="stop-color:#A3BF8F"/>
				</linearGradient>
				<path fill="url(#SVGID_14_)" d="M1975.2,427.74c0,0-36.83,28.6-59.5,57.28c-11.85,13.99-11.18,43.62-12.26,71.61
					c-0.98,28.78-3.24,54.92-27.85,75.63c-26.11,22.18-49.75,47.47-66.38,72.73c-17.1,25.11-25.88,49.76-27.32,66.54
					c0,0-1.3-4.91-3.34-12.69c-2.31-8.13-4.65-19.82-6.27-34.04c-3.44-28.3-2.34-67,7.55-102.11
					c15.97-57.51,46.12-88.21,69.07-106.18c23.91-17.84,42.55-23.94,51.83-32.86c9.25-8.99,25.9-25.43,41.57-38.11
					c7.59-6.61,15.01-12.18,20.39-16.24c5.38-4.1,8.72-6.65,8.72-6.65L1975.2,427.74z"/>
			</g>
			<g>
				
					<linearGradient id="SVGID_15_" gradientUnits="userSpaceOnUse" x1="-6683.6294" y1="136.6966" x2="-6923.2642" y2="136.6966" gradientTransform="matrix(-0.6161 -0.7876 0.7876 -0.6161 -2661.0693 -4776.6045)">
					<stop  offset="0.0792" style="stop-color:#DCF4B1"/>
					<stop  offset="0.2627" style="stop-color:#D9F2AE"/>
					<stop  offset="0.4154" style="stop-color:#CEEBA6"/>
					<stop  offset="0.5565" style="stop-color:#BDE097"/>
					<stop  offset="0.651" style="stop-color:#ADD68A"/>
					<stop  offset="1" style="stop-color:#A3BF8F"/>
				</linearGradient>
				<path fill="url(#SVGID_15_)" d="M1849.74,484.21c0,0-10.94,5.49-26.86,13.49c-7.92,3.38-17.07,7.28-26.84,11.44
					c-9.32,3.42-19.16,7.03-29.16,10.7c-18.85,6.23-38,31.12-65.29,51c-26.85,20.22-61.78,35.63-101.53,22.58
					c-83.67-27.29-144.73-70.5-174.3-81.78c0,0,18.62-0.21,46.06-2.14c34.93-2.94,74.28-6.26,97.47-8.22
					c55.39-4.52,93.66-1.72,122.8,2.49c29.02,4.23,48.71,9.78,62.06,7.05c13.4-2.42,37.3-8.97,56.98-16.73
					c10.09-3.39,18.74-7.74,25.18-10.67c6.43-2.97,10.45-4.82,10.45-4.82L1849.74,484.21z"/>
			</g>
			
				<linearGradient id="SVGID_16_" gradientUnits="userSpaceOnUse" x1="-7405.543" y1="790.0137" x2="-6777.7676" y2="753.0858" gradientTransform="matrix(-0.6161 -0.7876 0.7876 -0.6161 -2661.0693 -4776.6045)">
				<stop  offset="0.0792" style="stop-color:#DCF4B1"/>
				<stop  offset="0.2627" style="stop-color:#D9F2AE"/>
				<stop  offset="0.4154" style="stop-color:#CEEBA6"/>
				<stop  offset="0.5565" style="stop-color:#BDE097"/>
				<stop  offset="0.651" style="stop-color:#ADD68A"/>
				<stop  offset="1" style="stop-color:#A3BF8F"/>
			</linearGradient>
			<path fill="url(#SVGID_16_)" d="M2651.7-93.28c-58.24,71.27-122.99,135.24-191.07,195.9c-68.17,60.39-139.62,117.15-214.9,168.35
				c-75.1,51.36-152.68,99.33-233.81,140.56c-80.24,43-164.49,77.76-249.28,110.49c-2.23,0.86-4.73-0.25-5.58-2.47
				c-0.85-2.21,0.23-4.69,2.43-5.56l0.16-0.06c84.11-33.47,167.58-68.9,246.96-112.49c80.27-41.82,156.9-90.32,231-142.1
				C2311.89,207.7,2382.27,150.6,2449.29,90c66.76-60.66,130.81-125.41,186.74-195.29l0.32-0.4c3.41-4.26,9.62-4.94,13.88-1.54
				c4.26,3.41,4.95,9.62,1.54,13.87L2651.7-93.28z"/>
		</g>
		<defs>
			<filter id="Adobe_OpacityMaskFilter_1_" filterUnits="userSpaceOnUse" x="2188.21" y="-245.98" width="789.11" height="1281.71">
				<feColorMatrix  type="matrix" values="1 0 0 0 0  0 1 0 0 0  0 0 1 0 0  0 0 0 1 0"/>
			</filter>
		</defs>
		<mask maskUnits="userSpaceOnUse" x="2188.21" y="-245.98" width="789.11" height="1281.71" id="SVGID_17_">
			<g filter="url(#Adobe_OpacityMaskFilter_1_)">
				
					<radialGradient id="SVGID_18_" cx="-7804.2471" cy="-3078.7871" r="899.6801" gradientTransform="matrix(-0.9858 -0.1681 0.1681 -0.9858 -4699.1934 -3639.259)" gradientUnits="userSpaceOnUse">
					<stop  offset="0" style="stop-color:#FFFFFF"/>
					<stop  offset="0.0978" style="stop-color:#E4E4E4"/>
					<stop  offset="0.5488" style="stop-color:#6B6B6B"/>
					<stop  offset="0.8583" style="stop-color:#1E1E1E"/>
					<stop  offset="1" style="stop-color:#000000"/>
				</radialGradient>
				<polygon clip-path="url(#SVGID_2_)" fill="url(#SVGID_18_)" points="1895.39,-489.74 3384.89,-235.7 3130.86,1253.8 
					1641.35,999.77 				"/>
			</g>
		</mask>
		<g clip-path="url(#SVGID_2_)" mask="url(#SVGID_17_)">
			<g>
				
					<linearGradient id="SVGID_19_" gradientUnits="userSpaceOnUse" x1="-7656.5576" y1="-2289.5117" x2="-7843.4067" y2="-2289.5117" gradientTransform="matrix(-0.9858 -0.1681 0.1681 -0.9858 -4699.1934 -3639.259)">
					<stop  offset="0.0792" style="stop-color:#DCF4B1"/>
					<stop  offset="0.2627" style="stop-color:#D9F2AE"/>
					<stop  offset="0.4154" style="stop-color:#CEEBA6"/>
					<stop  offset="0.5565" style="stop-color:#BDE097"/>
					<stop  offset="0.651" style="stop-color:#ADD68A"/>
					<stop  offset="1" style="stop-color:#A3BF8F"/>
				</linearGradient>
				<path fill="url(#SVGID_19_)" d="M2675.07-222.72c0,0-15.23,40.14-32.06,70.03c-7.88,14.96-3.46,43.08-6.91,72.94
					c-3.33,29.57-14.21,60.24-46.54,74.48c-34,14.98-66.54,26.15-93.56,37.35c-27.08,10.98-48.41,22.19-59.55,32.97
					c0,0,6.76-16.6,19.08-39.12c12.19-22.62,29.94-50.99,48.77-75.3c30.77-39.49,57.26-59.14,78.96-72.78
					c21.42-13.53,38.36-20.38,45.16-29.78c6.92-9.26,18.48-26.88,26.53-43.07c4.43-7.91,7.66-15.56,10.18-21.08
					c2.5-5.54,4.05-8.99,4.05-8.99L2675.07-222.72z"/>
			</g>
			<g>
				
					<linearGradient id="SVGID_20_" gradientUnits="userSpaceOnUse" x1="-7587.5752" y1="-2474.7097" x2="-7880.8955" y2="-2474.7097" gradientTransform="matrix(-0.9858 -0.1681 0.1681 -0.9858 -4699.1934 -3639.259)">
					<stop  offset="0.0792" style="stop-color:#DCF4B1"/>
					<stop  offset="0.2627" style="stop-color:#D9F2AE"/>
					<stop  offset="0.4154" style="stop-color:#CEEBA6"/>
					<stop  offset="0.5565" style="stop-color:#BDE097"/>
					<stop  offset="0.651" style="stop-color:#ADD68A"/>
					<stop  offset="1" style="stop-color:#A3BF8F"/>
				</linearGradient>
				<path fill="url(#SVGID_20_)" d="M2678.82-21.67c0,0-1.16,2.74-3.17,7.47c-1.71,4.82-5.31,11.17-9.28,18.72
					c-8.58,14.81-22.17,32.59-35.35,47.49c-12.86,14.8-18.08,45.5-31.98,76.11c-13.62,30.54-35.31,59.93-73.37,69.08
					c-39.87,9.79-80.27,19.05-113.19,22.53c-33.17,4.03-58.14,2.49-73.08,4.05c0,0,15.55-8.04,35.96-23.74
					c20.64-15.39,45.87-39,73.1-61.72c46.14-37.93,82.47-53.63,109.81-64.28c27.45-10.4,47.16-14.81,57.46-23.55
					c10.15-8.71,27.46-25.89,39.13-42.54c12.09-16.49,18.03-31.88,18.03-31.88L2678.82-21.67z"/>
			</g>
			<g>
				
					<linearGradient id="SVGID_21_" gradientUnits="userSpaceOnUse" x1="-7615.8906" y1="-2631.8396" x2="-7891.3457" y2="-2631.8396" gradientTransform="matrix(-0.9858 -0.1681 0.1681 -0.9858 -4699.1934 -3639.259)">
					<stop  offset="0.0792" style="stop-color:#DCF4B1"/>
					<stop  offset="0.2627" style="stop-color:#D9F2AE"/>
					<stop  offset="0.4154" style="stop-color:#CEEBA6"/>
					<stop  offset="0.5565" style="stop-color:#BDE097"/>
					<stop  offset="0.651" style="stop-color:#ADD68A"/>
					<stop  offset="1" style="stop-color:#A3BF8F"/>
				</linearGradient>
				<path fill="url(#SVGID_21_)" d="M2660.84,145.97c0,0-0.93,2.42-2.54,6.59c-1.26,4.25-4.56,9.83-8.12,16.45
					c-7.71,13.08-20.91,28.35-33.48,41.1c-12.28,12.65-17.6,41.52-31.17,69.61c-13.24,28.01-34.25,54.41-69.65,59.07
					c-37.58,5.65-74,8.6-103.96,12.85c-30.12,4.24-54.97,11.05-69.08,20.49c0,0,11.14-16.04,30.37-35.99
					c19.08-20.09,45.96-43.55,71.82-62.51c43.86-32.1,77.54-43.14,103.22-50.45c25.68-7,44.3-8.98,54.02-16.21
					c9.62-7.15,26.17-21.52,36.95-35.75c5.59-7.01,9.49-13.91,12.02-18.92c2.2-5.11,3.57-8.29,3.57-8.29L2660.84,145.97z"/>
			</g>
			<g>
				
					<linearGradient id="SVGID_22_" gradientUnits="userSpaceOnUse" x1="-7577.875" y1="-2830.8157" x2="-7882.2324" y2="-2830.8157" gradientTransform="matrix(-0.9858 -0.1681 0.1681 -0.9858 -4699.1934 -3639.259)">
					<stop  offset="0.0792" style="stop-color:#DCF4B1"/>
					<stop  offset="0.2627" style="stop-color:#D9F2AE"/>
					<stop  offset="0.4154" style="stop-color:#CEEBA6"/>
					<stop  offset="0.5565" style="stop-color:#BDE097"/>
					<stop  offset="0.651" style="stop-color:#ADD68A"/>
					<stop  offset="1" style="stop-color:#A3BF8F"/>
				</linearGradient>
				<path fill="url(#SVGID_22_)" d="M2619.2,335.91c0,0-4.37,11.79-12.59,27.52c-8.2,15.72-20.62,35.05-32.71,51.45
					c-11.86,16.27-14.36,47.67-27.22,80c-12.36,31.93-35.89,65.07-79.42,73.97c-44.38,8.72-86.92,9.49-120.42,6.56
					c-33.83-2.71-59.22-8.38-75.79-8.42c0,0,18.1-6.36,42.55-18.07c24.57-11.51,54.9-29.12,82.96-46.84
					c46.45-29.02,78.65-46.29,105.99-58.57c26.7-12.12,46.1-18.88,55.89-28.59c9.53-9.85,25.57-29.06,36.75-47.15
					c11.48-17.95,18.15-34.24,18.15-34.24L2619.2,335.91z"/>
			</g>
			<g>
				
					<linearGradient id="SVGID_23_" gradientUnits="userSpaceOnUse" x1="-8137.1621" y1="-2932.2056" x2="-7865.9297" y2="-2932.2056" gradientTransform="matrix(-0.9858 -0.1681 0.1681 -0.9858 -4699.1934 -3639.259)">
					<stop  offset="0.0792" style="stop-color:#DCF4B1"/>
					<stop  offset="0.2627" style="stop-color:#D9F2AE"/>
					<stop  offset="0.4154" style="stop-color:#CEEBA6"/>
					<stop  offset="0.5565" style="stop-color:#BDE097"/>
					<stop  offset="0.651" style="stop-color:#ADD68A"/>
					<stop  offset="1" style="stop-color:#A3BF8F"/>
				</linearGradient>
				<path fill="url(#SVGID_23_)" d="M2589.53,447.84c0,0,2.69,10.61,7.7,24.86c5.21,14.17,12.93,31.89,21.68,46.37
					c8.28,14.93,35.69,22.97,60.5,32.74c25.49,9.93,48.62,21.13,56.72,51.31c8.74,31.97,19.2,63.14,31.65,88.7
					c12.18,25.74,27.24,44.9,40.13,54.06c0,0-4.62-1.17-11.91-3.03c-7.75-1.84-18.12-5.42-30.49-10.22
					c-24.36-9.83-54.79-26.73-79.63-48.01c-40.72-34.57-56.16-70.01-63.45-96.18c-6.88-26.83-5.55-45.42-10.37-56.37
					c-4.72-11.05-13.69-30.95-19.34-49.1c-3.12-8.94-5.44-17.38-6.85-23.66c-1.56-6.22-2.53-10.09-2.53-10.09L2589.53,447.84z"/>
			</g>
			<g>
				
					<linearGradient id="SVGID_24_" gradientUnits="userSpaceOnUse" x1="-7613.7939" y1="-3017.8982" x2="-7850.9087" y2="-3017.8982" gradientTransform="matrix(-0.9858 -0.1681 0.1681 -0.9858 -4699.1934 -3639.259)">
					<stop  offset="0.0792" style="stop-color:#DCF4B1"/>
					<stop  offset="0.2627" style="stop-color:#D9F2AE"/>
					<stop  offset="0.4154" style="stop-color:#CEEBA6"/>
					<stop  offset="0.5565" style="stop-color:#BDE097"/>
					<stop  offset="0.651" style="stop-color:#ADD68A"/>
					<stop  offset="1" style="stop-color:#A3BF8F"/>
				</linearGradient>
				<path fill="url(#SVGID_24_)" d="M2548.29,565.4c0,0-6.16,6.12-15.44,14.1c-9.22,8.04-21.6,17.89-32.7,26.55
					c-20.92,16.95-20.88,102.96-78.66,103.13c-15.55,0.26-28.97-0.53-43.77,0.49c-14.53,0.69-28.55,1.36-41.07,1.4
					c-25.24,0.36-43.47-2.48-53.49-1.46c0,0,9.47-7.51,22-20.35c13.06-12.81,28-30.86,50.64-48.77
					c36.07-26.81,63.77-32.87,85.82-35.68c21.84-2.48,37.72-0.5,46.22-5c8.54-4.39,23.23-13.54,35.12-22.25
					c11.94-8.66,21.03-16.82,21.03-16.82L2548.29,565.4z"/>
			</g>
			<g>
				
					<linearGradient id="SVGID_25_" gradientUnits="userSpaceOnUse" x1="-7999.1445" y1="-3148.1782" x2="-7839.5703" y2="-3148.1782" gradientTransform="matrix(-0.9858 -0.1681 0.1681 -0.9858 -4699.1934 -3639.259)">
					<stop  offset="0.0792" style="stop-color:#DCF4B1"/>
					<stop  offset="0.2627" style="stop-color:#D9F2AE"/>
					<stop  offset="0.4154" style="stop-color:#CEEBA6"/>
					<stop  offset="0.5565" style="stop-color:#BDE097"/>
					<stop  offset="0.651" style="stop-color:#ADD68A"/>
					<stop  offset="1" style="stop-color:#A3BF8F"/>
				</linearGradient>
				<path fill="url(#SVGID_25_)" d="M2538.23,604c0,0-8,45.94-5.48,82.41c0.65,18.32,21.08,39.79,39.12,61.22
					c18.64,21.95,34.56,42.81,30.28,74.69c-4.39,33.98-4.86,68.59-0.17,98.47c4.24,30.09,14.33,54.23,24.56,67.61
					c0,0-4.27-2.76-11.01-7.14c-7.18-4.46-16.78-11.53-27.54-20.97c-21.59-18.62-46.81-47.99-63.12-80.62
					c-26.88-53.29-25.23-96.29-20.34-125.03c5.68-29.29,15.37-46.34,16.23-59.18c0.79-12.87,2.05-36.24,5.11-56.16
					c1.17-10,2.9-19.11,4.16-25.73c1.22-6.65,1.98-10.79,1.98-10.79L2538.23,604z"/>
			</g>
			<g>
				
					<linearGradient id="SVGID_26_" gradientUnits="userSpaceOnUse" x1="-7575.0215" y1="-3274.665" x2="-7814.645" y2="-3274.665" gradientTransform="matrix(-0.9858 -0.1681 0.1681 -0.9858 -4699.1934 -3639.259)">
					<stop  offset="0.0792" style="stop-color:#DCF4B1"/>
					<stop  offset="0.2627" style="stop-color:#D9F2AE"/>
					<stop  offset="0.4154" style="stop-color:#CEEBA6"/>
					<stop  offset="0.5565" style="stop-color:#BDE097"/>
					<stop  offset="0.651" style="stop-color:#ADD68A"/>
					<stop  offset="1" style="stop-color:#A3BF8F"/>
				</linearGradient>
				<path fill="url(#SVGID_26_)" d="M2483.4,730.18c0,0-4.4,11.42-10.8,28.05c-3.59,7.83-7.73,16.87-12.16,26.52
					c-4.59,8.8-9.44,18.09-14.37,27.54c-9.75,17.29-7.17,48.59-13.98,81.66c-6.26,33.02-21.74,67.93-59.91,85.02
					c-80.26,36.11-154.5,45.23-183.97,56.77c0,0,13.64-12.68,32.64-32.57c23.86-25.68,50.74-54.61,66.58-71.66
					c37.94-40.61,68.13-64.29,92.52-80.79c24.32-16.4,42.62-25.54,50.65-36.54c8.28-10.8,21.56-31.73,30.9-50.72
					c5.19-9.3,8.66-18.34,11.45-24.84c2.76-6.53,4.48-10.6,4.48-10.6L2483.4,730.18z"/>
			</g>
			
				<linearGradient id="SVGID_27_" gradientUnits="userSpaceOnUse" x1="-8296.9531" y1="-2621.4021" x2="-7669.1484" y2="-2658.3318" gradientTransform="matrix(-0.9858 -0.1681 0.1681 -0.9858 -4699.1934 -3639.259)">
				<stop  offset="0.0792" style="stop-color:#DCF4B1"/>
				<stop  offset="0.2627" style="stop-color:#D9F2AE"/>
				<stop  offset="0.4154" style="stop-color:#CEEBA6"/>
				<stop  offset="0.5565" style="stop-color:#BDE097"/>
				<stop  offset="0.651" style="stop-color:#ADD68A"/>
				<stop  offset="1" style="stop-color:#A3BF8F"/>
			</linearGradient>
			<path fill="url(#SVGID_27_)" d="M2688.13-236.63c4.87,91.91,0.01,182.8-9.54,273.48c-9.8,90.54-24.47,180.61-45.7,269.14
				c-21,88.53-46.11,176.21-78.39,261.3c-30.43,85.8-69.37,168.2-110.07,249.47c-1.07,2.14-3.66,3-5.79,1.93
				c-2.12-1.06-2.98-3.63-1.95-5.75l0.07-0.15c39.7-81.35,77.61-163.72,107.01-249.39c31.24-84.95,55.31-172.39,75.28-260.55
				c20.2-88.17,33.85-177.77,42.66-267.7c8.58-89.79,12.39-180.79,6.75-270.12l-0.03-0.51c-0.34-5.44,3.79-10.13,9.23-10.48
				c5.44-0.34,10.13,3.79,10.47,9.23L2688.13-236.63z"/>
		</g>
		<defs>
			<filter id="Adobe_OpacityMaskFilter_2_" filterUnits="userSpaceOnUse" x="535.08" y="-205.36" width="1611.28" height="743.31">
				<feColorMatrix  type="matrix" values="1 0 0 0 0  0 1 0 0 0  0 0 1 0 0  0 0 0 1 0"/>
			</filter>
		</defs>
		<mask maskUnits="userSpaceOnUse" x="535.08" y="-205.36" width="1611.28" height="743.31" id="SVGID_28_">
			<g filter="url(#Adobe_OpacityMaskFilter_2_)">
				
					<radialGradient id="SVGID_29_" cx="-5151.5146" cy="1190.1698" r="1056.3674" gradientTransform="matrix(-0.2234 -0.9747 0.9747 -0.2234 -1290.1548 -4593.6138)" gradientUnits="userSpaceOnUse">
					<stop  offset="0" style="stop-color:#FFFFFF"/>
					<stop  offset="0.0978" style="stop-color:#E4E4E4"/>
					<stop  offset="0.5488" style="stop-color:#6B6B6B"/>
					<stop  offset="0.8583" style="stop-color:#1E1E1E"/>
					<stop  offset="1" style="stop-color:#000000"/>
				</radialGradient>
				<polygon clip-path="url(#SVGID_2_)" fill="url(#SVGID_29_)" points="2056.71,-1008.42 2452.96,720.81 723.74,1117.06 
					327.48,-612.16 				"/>
			</g>
		</mask>
		<g clip-path="url(#SVGID_2_)" mask="url(#SVGID_28_)">
			<g>
				
					<linearGradient id="SVGID_30_" gradientUnits="userSpaceOnUse" x1="-5619.6123" y1="2089.4907" x2="-5213.1763" y2="2089.4907" gradientTransform="matrix(-0.2234 -0.9747 0.9747 -0.2234 -1290.1548 -4593.6138)">
					<stop  offset="0.0792" style="stop-color:#DCF4B1"/>
					<stop  offset="0.2627" style="stop-color:#D9F2AE"/>
					<stop  offset="0.4154" style="stop-color:#CEEBA6"/>
					<stop  offset="0.5565" style="stop-color:#BDE097"/>
					<stop  offset="0.651" style="stop-color:#ADD68A"/>
					<stop  offset="1" style="stop-color:#A3BF8F"/>
				</linearGradient>
				<path fill="url(#SVGID_30_)" d="M2057.29-5.06c0,0-3.43,1.69-9.34,4.61c-5.72,3.17-14.43,6.5-23.29,12.5
					c-17.75,11.94-38.85,29.82-52.36,49.5c-15.37,18.93-10.1,56.34-5.85,89.85c4.57,34.83,8.74,68.08-15.45,102.85
					c-50.92,74.3-90.27,154.58-92.95,195.74c0,0-6.89-22.67-12.98-56.8c-5.98-34.06-10.57-79.91-6.97-124.46
					c5.46-72.62,31.66-121.38,56.33-151.18c25.62-30.09,48.21-42.29,59.22-55.35c11.35-12.94,32.6-36.74,56.34-51
					c11.09-8.17,22.59-13.4,31.05-17.05c8.37-3.82,13.59-6.2,13.59-6.2L2057.29-5.06z"/>
			</g>
			<g>
				
					<linearGradient id="SVGID_31_" gradientUnits="userSpaceOnUse" x1="-4897.1118" y1="1899.4489" x2="-5241.5171" y2="1899.4489" gradientTransform="matrix(-0.2234 -0.9747 0.9747 -0.2234 -1290.1548 -4593.6138)">
					<stop  offset="0.0792" style="stop-color:#DCF4B1"/>
					<stop  offset="0.2627" style="stop-color:#D9F2AE"/>
					<stop  offset="0.4154" style="stop-color:#CEEBA6"/>
					<stop  offset="0.5565" style="stop-color:#BDE097"/>
					<stop  offset="0.651" style="stop-color:#ADD68A"/>
					<stop  offset="1" style="stop-color:#A3BF8F"/>
				</linearGradient>
				<path fill="url(#SVGID_31_)" d="M1902.57,51.91c0,0-3.5-0.02-9.53-0.06c-6,0.32-14.51-0.72-24.48-1.62
					c-19.92-2.62-45.32-9.33-67.42-16.91c-21.84-7.27-57.48,0.92-96.93-0.35c-39.25-0.99-80.89-11.25-107.97-48.39
					c-28.59-38.81-56.84-78.43-75.46-112.54c-19.33-34.13-28.91-61.9-37.34-77.39c0,0,15.73,13.23,41.95,28.27
					c25.99,15.43,62.96,32.14,99.87,51.41c61.92,32.92,95.32,65.22,119.2,90.05c23.65,25.07,37.32,44.45,51.44,51.67
					c14.02,7.08,40.45,18.09,63.76,23.24c23.32,5.67,42.69,5.18,42.69,5.18L1902.57,51.91z"/>
			</g>
			<g>
				
					<linearGradient id="SVGID_32_" gradientUnits="userSpaceOnUse" x1="-5540.8081" y1="1828.0482" x2="-5237.9956" y2="1828.0482" gradientTransform="matrix(-0.2234 -0.9747 0.9747 -0.2234 -1290.1548 -4593.6138)">
					<stop  offset="0.0792" style="stop-color:#DCF4B1"/>
					<stop  offset="0.2627" style="stop-color:#D9F2AE"/>
					<stop  offset="0.4154" style="stop-color:#CEEBA6"/>
					<stop  offset="0.5565" style="stop-color:#BDE097"/>
					<stop  offset="0.651" style="stop-color:#ADD68A"/>
					<stop  offset="1" style="stop-color:#A3BF8F"/>
				</linearGradient>
				<path fill="url(#SVGID_32_)" d="M1826.77,71.78c0,0-32.99,39.88-55.97,74.16c-25.25,35.77,26.59,128.38-41.9,177.29
					c-71.12,50.39-140.7,85.48-163.07,112.91c0,0,22.74-78.49,54.56-143.44c25.97-52.83,53.39-83.41,77.86-104.63
					c24.46-21.44,45.77-31.41,55.12-42.23c18.77-22.81,67.69-78.85,67.69-78.85L1826.77,71.78z"/>
			</g>
			<g>
				
					<linearGradient id="SVGID_33_" gradientUnits="userSpaceOnUse" x1="-4930.3564" y1="1714.9557" x2="-5253.7856" y2="1714.9557" gradientTransform="matrix(-0.2234 -0.9747 0.9747 -0.2234 -1290.1548 -4593.6138)">
					<stop  offset="0.0792" style="stop-color:#DCF4B1"/>
					<stop  offset="0.2627" style="stop-color:#D9F2AE"/>
					<stop  offset="0.4154" style="stop-color:#CEEBA6"/>
					<stop  offset="0.5565" style="stop-color:#BDE097"/>
					<stop  offset="0.651" style="stop-color:#ADD68A"/>
					<stop  offset="1" style="stop-color:#A3BF8F"/>
				</linearGradient>
				<path fill="url(#SVGID_33_)" d="M1712.73,108c0,0-3.04,0.08-8.29,0.21c-5.18,0.55-12.71-0.51-21.5-1.39
					c-17.65-2.46-40.16-9.89-59.65-17.76c-19.25-7.61-52.95-0.36-89.52-2.4c-36.33-1.73-74.43-12.6-95.44-48.87
					c-23.07-38.2-42.69-76.35-60.8-106.9c-18.18-30.74-36.77-54.6-53.36-65.65c0,0,22.42,4.84,52.71,16.69
					c30.38,11.62,67.94,30.19,100.15,49.67c54.57,33.07,81.73,64.6,101.23,89.15c19.17,24.68,29.71,43.98,41.93,51.24
					c12.09,7.2,35.13,18.67,55.41,23.94c10.12,2.9,19.35,4.01,25.94,4.5c6.53,0.08,10.59,0.14,10.59,0.14L1712.73,108z"/>
			</g>
			<g>
				
					<linearGradient id="SVGID_34_" gradientUnits="userSpaceOnUse" x1="-5554.5186" y1="1595.7585" x2="-5240.0562" y2="1595.7585" gradientTransform="matrix(-0.2234 -0.9747 0.9747 -0.2234 -1290.1548 -4593.6138)">
					<stop  offset="0.0792" style="stop-color:#DCF4B1"/>
					<stop  offset="0.2627" style="stop-color:#D9F2AE"/>
					<stop  offset="0.4154" style="stop-color:#CEEBA6"/>
					<stop  offset="0.5565" style="stop-color:#BDE097"/>
					<stop  offset="0.651" style="stop-color:#ADD68A"/>
					<stop  offset="1" style="stop-color:#A3BF8F"/>
				</linearGradient>
				<path fill="url(#SVGID_34_)" d="M1641.02,117.99c0,0-3.79,1.04-10.31,2.82c-6.35,2.15-15.9,3.56-25.85,8.22
					c-20.3,8.22-45.23,21.3-63.93,36.98c-19.88,14.74-26.99,51.88-35,86.55c-8.34,35.5-17.16,69.78-52.6,94.87
					c-75.14,53.04-138.71,119.6-151.04,163.17c0,0,0.04-6.64,0.1-17.18c-0.14-11.1,1.18-26.39,3.3-44.79
					c4.78-36.42,16.52-83.73,36.18-125.84c31.85-68.78,73.81-105.45,107.09-125.78c33.93-20.43,59.4-25.44,73.61-35.32
					c14.71-9.44,41.5-26.9,67.82-36.49c6.52-2.48,12.76-4.85,18.45-7.01c6-1.47,11.42-2.81,15.98-3.93
					c9.15-2.21,14.86-3.6,14.86-3.6L1641.02,117.99z"/>
			</g>
			<g>
				
					<linearGradient id="SVGID_35_" gradientUnits="userSpaceOnUse" x1="-4885.7168" y1="1481.3293" x2="-5243.0811" y2="1481.3293" gradientTransform="matrix(-0.2234 -0.9747 0.9747 -0.2234 -1290.1548 -4593.6138)">
					<stop  offset="0.0792" style="stop-color:#DCF4B1"/>
					<stop  offset="0.2627" style="stop-color:#D9F2AE"/>
					<stop  offset="0.4154" style="stop-color:#CEEBA6"/>
					<stop  offset="0.5565" style="stop-color:#BDE097"/>
					<stop  offset="0.651" style="stop-color:#ADD68A"/>
					<stop  offset="1" style="stop-color:#A3BF8F"/>
				</linearGradient>
				<path fill="url(#SVGID_35_)" d="M1488.05,148.52c0,0-14.75,0.58-35.5-1.24c-20.74-1.81-47.29-6.54-70.53-12.26
					c-22.99-5.52-58.15,5.93-99,6.56c-40.19,1-86.73-9.56-116-52.74c-29.47-44.18-49.49-89.95-61.41-127.59
					c-12.31-37.9-17.62-67.98-25.05-85.96c0,0,15.06,16.75,38.77,37.98c23.56,21.45,56.32,46.39,88.18,68.81
					c52.4,37.26,85.64,64.39,111.28,88.48c25.17,23.47,41.25,41.46,56.19,47.69c14.97,5.89,43.03,14.61,67.68,18.58
					c24.63,4.35,45.31,4.24,45.31,4.24L1488.05,148.52z"/>
			</g>
			<g>
				
					<linearGradient id="SVGID_36_" gradientUnits="userSpaceOnUse" x1="-5542.3989" y1="1362.2787" x2="-5223.937" y2="1362.2787" gradientTransform="matrix(-0.2234 -0.9747 0.9747 -0.2234 -1290.1548 -4593.6138)">
					<stop  offset="0.0792" style="stop-color:#DCF4B1"/>
					<stop  offset="0.2627" style="stop-color:#D9F2AE"/>
					<stop  offset="0.4154" style="stop-color:#CEEBA6"/>
					<stop  offset="0.5565" style="stop-color:#BDE097"/>
					<stop  offset="0.651" style="stop-color:#ADD68A"/>
					<stop  offset="1" style="stop-color:#A3BF8F"/>
				</linearGradient>
				<path fill="url(#SVGID_36_)" d="M1353.34,166.83c0,0-10.29,7.7-23.48,19.56c-13.01,12.04-28.74,28.4-40.49,44.41
					c-12.46,15.71-8.8,49.05-8.21,80.35c0.74,32.11-0.98,62.23-30.05,84.62c-30.71,23.88-59.79,49.28-81.89,74.31
					c-22.41,24.81-36.4,49.77-40.51,67.87c0,0-0.81-5.54-2.09-14.28c-1.49-9.23-2.29-22.09-2.68-37.66
					c-0.33-30.84,4.27-71.44,16.14-107.97c19.12-59.74,50.57-92.45,75.65-112.15c25.99-19.56,46.74-26.49,56.43-36.66
					c9.85-10.1,27.38-28.79,44.5-43.1c8.29-7.41,16.39-13.74,22.56-18.09c6.04-4.49,9.8-7.29,9.8-7.29L1353.34,166.83z"/>
			</g>
			<g>
				
					<linearGradient id="SVGID_37_" gradientUnits="userSpaceOnUse" x1="-4927.8892" y1="1261.668" x2="-5206.2983" y2="1261.668" gradientTransform="matrix(-0.2234 -0.9747 0.9747 -0.2234 -1290.1548 -4593.6138)">
					<stop  offset="0.0792" style="stop-color:#DCF4B1"/>
					<stop  offset="0.2627" style="stop-color:#D9F2AE"/>
					<stop  offset="0.4154" style="stop-color:#CEEBA6"/>
					<stop  offset="0.5565" style="stop-color:#BDE097"/>
					<stop  offset="0.651" style="stop-color:#ADD68A"/>
					<stop  offset="1" style="stop-color:#A3BF8F"/>
				</linearGradient>
				<path fill="url(#SVGID_37_)" d="M1207.31,175.13c0,0-9.42-3.91-22.25-10.38c-12.88-6.37-29.13-15.35-43.53-23.48
					c-27.8-15.03-121.02,23.79-147.27-38.77c-7.29-16.74-12.49-31.65-20.27-47.23c-7.3-15.44-14.35-30.33-20.03-43.89
					c-11.77-27.2-16.91-48.24-22.54-58.64c0,0,12.41,6.88,31.98,14.67c19.77,8.38,46.07,16.44,75.7,32.9
					c45.33,27.02,64.39,54.31,77.38,76.95c12.54,22.56,17.55,40.66,26.26,47.85c8.61,7.28,25.16,19.08,39.96,28.03
					c14.77,9.04,27.72,15.21,27.72,15.21L1207.31,175.13z"/>
			</g>
			<g>
				
					<linearGradient id="SVGID_38_" gradientUnits="userSpaceOnUse" x1="-5380.3423" y1="1108.6974" x2="-5192.9829" y2="1108.6974" gradientTransform="matrix(-0.2234 -0.9747 0.9747 -0.2234 -1290.1548 -4593.6138)">
					<stop  offset="0.0792" style="stop-color:#DCF4B1"/>
					<stop  offset="0.2627" style="stop-color:#D9F2AE"/>
					<stop  offset="0.4154" style="stop-color:#CEEBA6"/>
					<stop  offset="0.5565" style="stop-color:#BDE097"/>
					<stop  offset="0.651" style="stop-color:#ADD68A"/>
					<stop  offset="1" style="stop-color:#A3BF8F"/>
				</linearGradient>
				<path fill="url(#SVGID_38_)" d="M1160.92,181.62c0,0-53.4,12.04-91.8,31.22c-19.57,8.96-33.63,40.79-48.73,70.01
					c-15.39,30.11-30.82,56.76-67.31,66.51c-38.82,10.56-76.55,25.66-106.82,44.22c-30.7,18.17-52.32,39.99-62.22,57.11
					c0,0,1.07-5.87,2.77-15.16c1.6-9.79,4.93-23.39,10.31-39.31c10.45-31.8,30.92-72.39,58.93-104.78
					c45.65-53.17,93-70.77,126.36-78.43c34.31-7.05,57.16-4.24,71.48-9.09c14.31-4.95,40.21-14.12,63.18-19.78
					c11.37-3.24,22.02-5.47,29.77-7.09c7.76-1.68,12.59-2.72,12.59-2.72L1160.92,181.62z"/>
			</g>
			<g>
				
					<linearGradient id="SVGID_39_" gradientUnits="userSpaceOnUse" x1="-4882.3594" y1="960.1876" x2="-5163.7173" y2="960.1876" gradientTransform="matrix(-0.2234 -0.9747 0.9747 -0.2234 -1290.1548 -4593.6138)">
					<stop  offset="0.0792" style="stop-color:#DCF4B1"/>
					<stop  offset="0.2627" style="stop-color:#D9F2AE"/>
					<stop  offset="0.4154" style="stop-color:#CEEBA6"/>
					<stop  offset="0.5565" style="stop-color:#BDE097"/>
					<stop  offset="0.651" style="stop-color:#ADD68A"/>
					<stop  offset="1" style="stop-color:#A3BF8F"/>
				</linearGradient>
				<path fill="url(#SVGID_39_)" d="M999.41,179.09c0,0-14.37,0.38-35.28,0.94c-10.11-0.36-21.78-0.77-34.23-1.22
					c-11.61-1.01-23.87-2.08-36.33-3.16c-23.14-2.77-55.91,14.14-94.82,21.66c-38.62,8.11-83.44,7.07-119.18-26.61
					C604.24,99.98,560.88,23.61,535.08-3.13c0,0,19.9,9.06,50.03,20.69c38.59,14.28,82.08,30.37,107.7,39.86
					c61.13,22.82,100.41,44.87,129.29,63.87c28.74,18.97,46.9,34.69,62.45,38.44c15.45,4.11,44.12,9.06,68.91,10.62
					c12.42,1.43,23.79,1.11,32.09,1.22c8.32,0.05,13.51,0.08,13.51,0.08L999.41,179.09z"/>
			</g>
			
				<linearGradient id="SVGID_40_" gradientUnits="userSpaceOnUse" x1="-5730.0596" y1="1727.2119" x2="-4992.875" y2="1683.8481" gradientTransform="matrix(-0.2234 -0.9747 0.9747 -0.2234 -1290.1548 -4593.6138)">
				<stop  offset="0.0792" style="stop-color:#DCF4B1"/>
				<stop  offset="0.2627" style="stop-color:#D9F2AE"/>
				<stop  offset="0.4154" style="stop-color:#CEEBA6"/>
				<stop  offset="0.5565" style="stop-color:#BDE097"/>
				<stop  offset="0.651" style="stop-color:#ADD68A"/>
				<stop  offset="1" style="stop-color:#A3BF8F"/>
			</linearGradient>
			<path fill="url(#SVGID_40_)" d="M2139.78-34.93c-97.44,46.72-198.16,82.44-300.77,112.97c-102.57,30.2-206.82,54.92-312.37,71.82
				c-105.44,17.15-211.81,29.47-318.6,32.85c-106.73,5.71-213.62,0.65-320.06-6.83c-2.8-0.19-4.9-2.62-4.7-5.41
				c0.19-2.77,2.59-4.87,5.36-4.7l0.2,0.01c106.09,6.35,212.48,10.31,318.59,3.54c106.17-4.43,211.81-17.78,316.39-35.88
				c104.69-17.86,207.97-43.47,309.43-74.47c101.21-31.19,201.57-68.09,295.86-114.48l0.54-0.27c5.74-2.82,12.69-0.46,15.52,5.28
				c2.82,5.75,0.46,12.69-5.28,15.51L2139.78-34.93z"/>
		</g>
	</g>
</g>
</svg>
